<svg width="182" height="31" viewBox="0 0 182 31" fill="none" xmlns="http://www.w3.org/2000/svg">
<path d="M50.1843 20.6896C48.9803 20.6896 48.0516 20.3676 47.3983 19.7236C46.7449 19.0702 46.4183 18.0856 46.4183 16.7696V11.0856C46.4183 10.9829 46.4463 10.9036 46.5023 10.8476C46.5583 10.7822 46.6329 10.7496 46.7263 10.7496H47.3983C47.5009 10.7496 47.5803 10.7822 47.6363 10.8476C47.7016 10.9036 47.7343 10.9829 47.7343 11.0856V16.7976C47.7343 17.7122 47.9443 18.3936 48.3643 18.8416C48.7936 19.2896 49.4003 19.5136 50.1843 19.5136C50.9589 19.5136 51.5563 19.2896 51.9763 18.8416C52.4056 18.3842 52.6203 17.7029 52.6203 16.7976V11.0856C52.6203 10.9829 52.6483 10.9036 52.7043 10.8476C52.7603 10.7822 52.8396 10.7496 52.9423 10.7496H53.6143C53.7076 10.7496 53.7823 10.7822 53.8383 10.8476C53.9036 10.9036 53.9363 10.9829 53.9363 11.0856V16.7696C53.9363 18.0856 53.6096 19.0702 52.9563 19.7236C52.3123 20.3676 51.3883 20.6896 50.1843 20.6896ZM56.445 20.5496C56.3517 20.5496 56.2723 20.5216 56.207 20.4656C56.151 20.4002 56.123 20.3209 56.123 20.2276V13.5916C56.123 13.4982 56.151 13.4236 56.207 13.3676C56.2723 13.3022 56.3517 13.2696 56.445 13.2696H57.047C57.1497 13.2696 57.229 13.2976 57.285 13.3536C57.341 13.4096 57.369 13.4889 57.369 13.5916V14.2076C57.649 13.8622 57.971 13.5962 58.335 13.4096C58.7083 13.2229 59.1703 13.1296 59.721 13.1296C60.617 13.1296 61.3123 13.4189 61.807 13.9976C62.3017 14.5669 62.549 15.3229 62.549 16.2656V20.2276C62.549 20.3209 62.5163 20.4002 62.451 20.4656C62.395 20.5216 62.3203 20.5496 62.227 20.5496H61.583C61.4897 20.5496 61.4103 20.5216 61.345 20.4656C61.289 20.4002 61.261 20.3209 61.261 20.2276V16.3496C61.261 15.6776 61.0977 15.1549 60.771 14.7816C60.4443 14.4082 59.9777 14.2216 59.371 14.2216C58.7737 14.2216 58.2977 14.4129 57.943 14.7956C57.5883 15.1689 57.411 15.6869 57.411 16.3496V20.2276C57.411 20.3209 57.3783 20.4002 57.313 20.4656C57.257 20.5216 57.1823 20.5496 57.089 20.5496H56.445ZM64.9082 20.5496C64.8149 20.5496 64.7356 20.5216 64.6702 20.4656C64.6142 20.4002 64.5862 20.3209 64.5862 20.2276V10.9316C64.5862 10.8289 64.6142 10.7496 64.6702 10.6936C64.7356 10.6376 64.8149 10.6096 64.9082 10.6096H65.5242C65.6176 10.6096 65.6922 10.6422 65.7482 10.7076C65.8136 10.7636 65.8462 10.8382 65.8462 10.9316V20.2276C65.8462 20.3209 65.8136 20.4002 65.7482 20.4656C65.6922 20.5216 65.6176 20.5496 65.5242 20.5496H64.9082ZM68.1592 11.8976C68.0658 11.8976 67.9865 11.8696 67.9212 11.8136C67.8652 11.7482 67.8372 11.6689 67.8372 11.5756V10.8476C67.8372 10.7542 67.8652 10.6749 67.9212 10.6096C67.9865 10.5442 68.0658 10.5116 68.1592 10.5116H68.9852C69.0785 10.5116 69.1578 10.5442 69.2232 10.6096C69.2885 10.6749 69.3212 10.7542 69.3212 10.8476V11.5756C69.3212 11.6689 69.2885 11.7482 69.2232 11.8136C69.1578 11.8696 69.0785 11.8976 68.9852 11.8976H68.1592ZM68.2712 20.5496C68.1778 20.5496 68.0985 20.5216 68.0332 20.4656C67.9772 20.4002 67.9492 20.3209 67.9492 20.2276V13.5916C67.9492 13.4982 67.9772 13.4236 68.0332 13.3676C68.0985 13.3022 68.1778 13.2696 68.2712 13.2696H68.8872C68.9805 13.2696 69.0552 13.3022 69.1112 13.3676C69.1765 13.4236 69.2092 13.4982 69.2092 13.5916V20.2276C69.2092 20.3209 69.1765 20.4002 69.1112 20.4656C69.0552 20.5216 68.9805 20.5496 68.8872 20.5496H68.2712ZM71.6345 20.5496C71.5411 20.5496 71.4618 20.5216 71.3965 20.4656C71.3405 20.4002 71.3125 20.3209 71.3125 20.2276V13.5916C71.3125 13.4982 71.3405 13.4236 71.3965 13.3676C71.4618 13.3022 71.5411 13.2696 71.6345 13.2696H72.2225C72.3158 13.2696 72.3905 13.3022 72.4465 13.3676C72.5025 13.4236 72.5305 13.4982 72.5305 13.5916V14.0676C73.0345 13.4422 73.7158 13.1296 74.5745 13.1296C75.6011 13.1296 76.3291 13.5589 76.7585 14.4176C76.9825 14.0256 77.2998 13.7129 77.7105 13.4796C78.1305 13.2462 78.5971 13.1296 79.1105 13.1296C79.8758 13.1296 80.5011 13.3909 80.9865 13.9136C81.4718 14.4362 81.7145 15.1922 81.7145 16.1816V20.2276C81.7145 20.3209 81.6818 20.4002 81.6165 20.4656C81.5605 20.5216 81.4858 20.5496 81.3925 20.5496H80.7905C80.6971 20.5496 80.6178 20.5216 80.5525 20.4656C80.4965 20.4002 80.4685 20.3209 80.4685 20.2276V16.3076C80.4685 15.5609 80.3145 15.0289 80.0065 14.7116C79.6985 14.3849 79.2925 14.2216 78.7885 14.2216C78.3405 14.2216 77.9531 14.3896 77.6265 14.7256C77.3091 15.0522 77.1505 15.5796 77.1505 16.3076V20.2276C77.1505 20.3209 77.1178 20.4002 77.0525 20.4656C76.9965 20.5216 76.9218 20.5496 76.8285 20.5496H76.2125C76.1191 20.5496 76.0398 20.5216 75.9745 20.4656C75.9185 20.4002 75.8905 20.3209 75.8905 20.2276V16.3076C75.8905 15.5702 75.7271 15.0382 75.4005 14.7116C75.0831 14.3849 74.6865 14.2216 74.2105 14.2216C73.7625 14.2216 73.3751 14.3849 73.0485 14.7116C72.7311 15.0382 72.5725 15.5656 72.5725 16.2936V20.2276C72.5725 20.3209 72.5398 20.4002 72.4745 20.4656C72.4185 20.5216 72.3438 20.5496 72.2505 20.5496H71.6345ZM83.9502 11.8976C83.8569 11.8976 83.7775 11.8696 83.7122 11.8136C83.6562 11.7482 83.6282 11.6689 83.6282 11.5756V10.8476C83.6282 10.7542 83.6562 10.6749 83.7122 10.6096C83.7775 10.5442 83.8569 10.5116 83.9502 10.5116H84.7762C84.8695 10.5116 84.9489 10.5442 85.0142 10.6096C85.0795 10.6749 85.1122 10.7542 85.1122 10.8476V11.5756C85.1122 11.6689 85.0795 11.7482 85.0142 11.8136C84.9489 11.8696 84.8695 11.8976 84.7762 11.8976H83.9502ZM84.0622 20.5496C83.9689 20.5496 83.8895 20.5216 83.8242 20.4656C83.7682 20.4002 83.7402 20.3209 83.7402 20.2276V13.5916C83.7402 13.4982 83.7682 13.4236 83.8242 13.3676C83.8895 13.3022 83.9689 13.2696 84.0622 13.2696H84.6782C84.7715 13.2696 84.8462 13.3022 84.9022 13.3676C84.9675 13.4236 85.0002 13.4982 85.0002 13.5916V20.2276C85.0002 20.3209 84.9675 20.4002 84.9022 20.4656C84.8462 20.5216 84.7715 20.5496 84.6782 20.5496H84.0622ZM89.9035 20.5496C88.4568 20.5496 87.7335 19.7329 87.7335 18.0996V14.3476H86.6275C86.5341 14.3476 86.4595 14.3196 86.4035 14.2636C86.3475 14.2076 86.3195 14.1329 86.3195 14.0396V13.5916C86.3195 13.4982 86.3475 13.4236 86.4035 13.3676C86.4595 13.3022 86.5341 13.2696 86.6275 13.2696H87.7335V10.9316C87.7335 10.8382 87.7615 10.7636 87.8175 10.7076C87.8735 10.6422 87.9481 10.6096 88.0415 10.6096H88.6575C88.7508 10.6096 88.8255 10.6422 88.8815 10.7076C88.9468 10.7636 88.9795 10.8382 88.9795 10.9316V13.2696H90.7155C90.8088 13.2696 90.8835 13.3022 90.9395 13.3676C91.0048 13.4236 91.0375 13.4982 91.0375 13.5916V14.0396C91.0375 14.1329 91.0048 14.2076 90.9395 14.2636C90.8835 14.3196 90.8088 14.3476 90.7155 14.3476H88.9795V18.0016C88.9795 18.4776 89.0541 18.8369 89.2035 19.0796C89.3621 19.3222 89.6281 19.4436 90.0015 19.4436H90.8555C90.9488 19.4436 91.0235 19.4762 91.0795 19.5416C91.1355 19.5976 91.1635 19.6722 91.1635 19.7656V20.2276C91.1635 20.3209 91.1355 20.4002 91.0795 20.4656C91.0235 20.5216 90.9488 20.5496 90.8555 20.5496H89.9035ZM95.4152 20.6896C94.4632 20.6896 93.7025 20.3956 93.1332 19.8076C92.5639 19.2102 92.2512 18.3982 92.1952 17.3716L92.1812 16.8956L92.1952 16.4336C92.2512 15.4256 92.5639 14.6229 93.1332 14.0256C93.7025 13.4282 94.4632 13.1296 95.4152 13.1296C96.4419 13.1296 97.2352 13.4562 97.7952 14.1096C98.3645 14.7629 98.6492 15.6496 98.6492 16.7696V17.0216C98.6492 17.1149 98.6165 17.1942 98.5512 17.2596C98.4952 17.3156 98.4205 17.3436 98.3272 17.3436H93.4692V17.4696C93.4972 18.0762 93.6839 18.5942 94.0292 19.0236C94.3745 19.4529 94.8319 19.6676 95.4012 19.6676C95.8399 19.6676 96.1945 19.5836 96.4652 19.4156C96.7452 19.2382 96.9552 19.0562 97.0952 18.8696C97.1792 18.7576 97.2445 18.6922 97.2912 18.6736C97.3379 18.6456 97.4172 18.6316 97.5292 18.6316H98.1452C98.2292 18.6316 98.2992 18.6549 98.3552 18.7016C98.4205 18.7482 98.4532 18.8089 98.4532 18.8836C98.4532 19.0889 98.3272 19.3362 98.0752 19.6256C97.8232 19.9149 97.4639 20.1669 96.9972 20.3816C96.5399 20.5869 96.0125 20.6896 95.4152 20.6896ZM97.3752 16.3916V16.3496C97.3752 15.6962 97.1979 15.1642 96.8432 14.7536C96.4885 14.3429 96.0125 14.1376 95.4152 14.1376C94.8085 14.1376 94.3325 14.3429 93.9872 14.7536C93.6419 15.1642 93.4692 15.6962 93.4692 16.3496V16.3916H97.3752ZM103.012 20.6896C102.032 20.6896 101.294 20.3722 100.8 19.7376C100.314 19.1029 100.053 18.3002 100.016 17.3296L100.002 16.9096L100.016 16.4896C100.053 15.5282 100.319 14.7302 100.814 14.0956C101.308 13.4516 102.041 13.1296 103.012 13.1296C103.982 13.1296 104.738 13.4749 105.28 14.1656V10.9316C105.28 10.8382 105.308 10.7636 105.364 10.7076C105.429 10.6422 105.508 10.6096 105.602 10.6096H106.232C106.325 10.6096 106.4 10.6422 106.456 10.7076C106.521 10.7636 106.554 10.8382 106.554 10.9316V20.2276C106.554 20.3209 106.521 20.4002 106.456 20.4656C106.4 20.5216 106.325 20.5496 106.232 20.5496H105.63C105.536 20.5496 105.462 20.5216 105.406 20.4656C105.35 20.4002 105.322 20.3209 105.322 20.2276V19.6256C104.79 20.3349 104.02 20.6896 103.012 20.6896ZM103.278 19.5976C103.931 19.5976 104.421 19.3829 104.748 18.9536C105.074 18.5149 105.252 17.9969 105.28 17.3996C105.289 17.2969 105.294 17.1196 105.294 16.8676C105.294 16.6062 105.289 16.4242 105.28 16.3216C105.261 15.7522 105.079 15.2622 104.734 14.8516C104.398 14.4316 103.912 14.2216 103.278 14.2216C102.606 14.2216 102.116 14.4316 101.808 14.8516C101.5 15.2716 101.332 15.8222 101.304 16.5036L101.29 16.9096C101.29 18.7016 101.952 19.5976 103.278 19.5976ZM112.599 20.5496C112.506 20.5496 112.431 20.5216 112.375 20.4656C112.319 20.4002 112.291 20.3209 112.291 20.2276V11.0856C112.291 10.9829 112.319 10.9036 112.375 10.8476C112.431 10.7822 112.506 10.7496 112.599 10.7496H116.421C117.411 10.7496 118.157 10.9876 118.661 11.4636C119.165 11.9396 119.417 12.5602 119.417 13.3256C119.417 13.8482 119.296 14.2869 119.053 14.6416C118.811 14.9869 118.526 15.2389 118.199 15.3976C118.601 15.5936 118.937 15.8969 119.207 16.3076C119.478 16.7182 119.613 17.1896 119.613 17.7216C119.613 18.2442 119.492 18.7202 119.249 19.1496C119.016 19.5789 118.666 19.9196 118.199 20.1716C117.733 20.4236 117.177 20.5496 116.533 20.5496H112.599ZM116.211 14.9076C116.818 14.9076 117.28 14.7722 117.597 14.5016C117.915 14.2216 118.073 13.8342 118.073 13.3396C118.073 12.8542 117.915 12.4856 117.597 12.2336C117.289 11.9816 116.827 11.8556 116.211 11.8556H113.607V14.9076H116.211ZM116.351 19.4436C116.949 19.4436 117.415 19.2849 117.751 18.9676C118.097 18.6409 118.269 18.2256 118.269 17.7216C118.269 17.2082 118.097 16.7929 117.751 16.4756C117.415 16.1582 116.949 15.9996 116.351 15.9996H113.607V19.4436H116.351ZM123.463 20.6896C123.006 20.6896 122.581 20.5962 122.189 20.4096C121.807 20.2229 121.499 19.9709 121.265 19.6536C121.041 19.3269 120.929 18.9676 120.929 18.5756C120.929 17.9596 121.181 17.4556 121.685 17.0636C122.189 16.6716 122.875 16.4102 123.743 16.2796L125.843 15.9856V15.5796C125.843 14.6182 125.288 14.1376 124.177 14.1376C123.748 14.1376 123.403 14.2262 123.141 14.4036C122.88 14.5716 122.689 14.7722 122.567 15.0056C122.53 15.0989 122.488 15.1642 122.441 15.2016C122.404 15.2296 122.348 15.2436 122.273 15.2436H121.727C121.643 15.2436 121.569 15.2156 121.503 15.1596C121.447 15.0942 121.419 15.0196 121.419 14.9356C121.419 14.7209 121.517 14.4736 121.713 14.1936C121.919 13.9042 122.231 13.6569 122.651 13.4516C123.071 13.2369 123.585 13.1296 124.191 13.1296C125.237 13.1296 125.983 13.3722 126.431 13.8576C126.889 14.3429 127.117 14.9496 127.117 15.6776V20.2276C127.117 20.3209 127.085 20.4002 127.019 20.4656C126.963 20.5216 126.889 20.5496 126.795 20.5496H126.179C126.086 20.5496 126.011 20.5216 125.955 20.4656C125.899 20.4002 125.871 20.3209 125.871 20.2276V19.6116C125.666 19.9196 125.367 20.1762 124.975 20.3816C124.583 20.5869 124.079 20.6896 123.463 20.6896ZM123.743 19.6676C124.359 19.6676 124.863 19.4669 125.255 19.0656C125.647 18.6642 125.843 18.0809 125.843 17.3156V16.9236L124.205 17.1616C123.533 17.2549 123.025 17.4136 122.679 17.6376C122.334 17.8616 122.161 18.1416 122.161 18.4776C122.161 18.8602 122.315 19.1542 122.623 19.3596C122.941 19.5649 123.314 19.6676 123.743 19.6676ZM129.466 20.5496C129.373 20.5496 129.294 20.5216 129.228 20.4656C129.172 20.4002 129.144 20.3209 129.144 20.2276V13.5916C129.144 13.4982 129.172 13.4236 129.228 13.3676C129.294 13.3022 129.373 13.2696 129.466 13.2696H130.068C130.171 13.2696 130.25 13.2976 130.306 13.3536C130.362 13.4096 130.39 13.4889 130.39 13.5916V14.2076C130.67 13.8622 130.992 13.5962 131.356 13.4096C131.73 13.2229 132.192 13.1296 132.742 13.1296C133.638 13.1296 134.334 13.4189 134.828 13.9976C135.323 14.5669 135.57 15.3229 135.57 16.2656V20.2276C135.57 20.3209 135.538 20.4002 135.472 20.4656C135.416 20.5216 135.342 20.5496 135.248 20.5496H134.604C134.511 20.5496 134.432 20.5216 134.366 20.4656C134.31 20.4002 134.282 20.3209 134.282 20.2276V16.3496C134.282 15.6776 134.119 15.1549 133.792 14.7816C133.466 14.4082 132.999 14.2216 132.392 14.2216C131.795 14.2216 131.319 14.4129 130.964 14.7956C130.61 15.1689 130.432 15.6869 130.432 16.3496V20.2276C130.432 20.3209 130.4 20.4002 130.334 20.4656C130.278 20.5216 130.204 20.5496 130.11 20.5496H129.466ZM140.254 20.6896C139.274 20.6896 138.536 20.3722 138.042 19.7376C137.556 19.1029 137.295 18.3002 137.258 17.3296L137.244 16.9096L137.258 16.4896C137.295 15.5282 137.561 14.7302 138.056 14.0956C138.55 13.4516 139.283 13.1296 140.254 13.1296C141.224 13.1296 141.98 13.4749 142.522 14.1656V10.9316C142.522 10.8382 142.55 10.7636 142.606 10.7076C142.671 10.6422 142.75 10.6096 142.844 10.6096H143.474C143.567 10.6096 143.642 10.6422 143.698 10.7076C143.763 10.7636 143.796 10.8382 143.796 10.9316V20.2276C143.796 20.3209 143.763 20.4002 143.698 20.4656C143.642 20.5216 143.567 20.5496 143.474 20.5496H142.872C142.778 20.5496 142.704 20.5216 142.648 20.4656C142.592 20.4002 142.564 20.3209 142.564 20.2276V19.6256C142.032 20.3349 141.262 20.6896 140.254 20.6896ZM140.52 19.5976C141.173 19.5976 141.663 19.3829 141.99 18.9536C142.316 18.5149 142.494 17.9969 142.522 17.3996C142.531 17.2969 142.536 17.1196 142.536 16.8676C142.536 16.6062 142.531 16.4242 142.522 16.3216C142.503 15.7522 142.321 15.2622 141.976 14.8516C141.64 14.4316 141.154 14.2216 140.52 14.2216C139.848 14.2216 139.358 14.4316 139.05 14.8516C138.742 15.2716 138.574 15.8222 138.546 16.5036L138.532 16.9096C138.532 18.7016 139.194 19.5976 140.52 19.5976ZM147.838 20.5496C147.708 20.5496 147.61 20.5216 147.544 20.4656C147.479 20.4096 147.428 20.3209 147.39 20.1996L145.402 13.7036L145.374 13.5636C145.374 13.4796 145.402 13.4096 145.458 13.3536C145.514 13.2976 145.584 13.2696 145.668 13.2696H146.242C146.336 13.2696 146.41 13.2976 146.466 13.3536C146.532 13.4002 146.569 13.4469 146.578 13.4936L148.16 18.8416L149.84 13.5636C149.859 13.4889 149.901 13.4236 149.966 13.3676C150.032 13.3022 150.12 13.2696 150.232 13.2696H150.68C150.792 13.2696 150.881 13.3022 150.946 13.3676C151.012 13.4236 151.054 13.4889 151.072 13.5636L152.752 18.8416L154.334 13.4936C154.344 13.4469 154.376 13.4002 154.432 13.3536C154.498 13.2976 154.577 13.2696 154.67 13.2696H155.244C155.328 13.2696 155.398 13.2976 155.454 13.3536C155.51 13.4096 155.538 13.4796 155.538 13.5636L155.51 13.7036L153.522 20.1996C153.485 20.3209 153.434 20.4096 153.368 20.4656C153.303 20.5216 153.205 20.5496 153.074 20.5496H152.57C152.328 20.5496 152.169 20.4329 152.094 20.1996L150.456 15.1316L148.818 20.1996C148.744 20.4329 148.585 20.5496 148.342 20.5496H147.838ZM157.313 11.8976C157.22 11.8976 157.141 11.8696 157.075 11.8136C157.019 11.7482 156.991 11.6689 156.991 11.5756V10.8476C156.991 10.7542 157.019 10.6749 157.075 10.6096C157.141 10.5442 157.22 10.5116 157.313 10.5116H158.139C158.233 10.5116 158.312 10.5442 158.377 10.6096C158.443 10.6749 158.475 10.7542 158.475 10.8476V11.5756C158.475 11.6689 158.443 11.7482 158.377 11.8136C158.312 11.8696 158.233 11.8976 158.139 11.8976H157.313ZM157.425 20.5496C157.332 20.5496 157.253 20.5216 157.187 20.4656C157.131 20.4002 157.103 20.3209 157.103 20.2276V13.5916C157.103 13.4982 157.131 13.4236 157.187 13.3676C157.253 13.3022 157.332 13.2696 157.425 13.2696H158.041C158.135 13.2696 158.209 13.3022 158.265 13.3676C158.331 13.4236 158.363 13.4982 158.363 13.5916V20.2276C158.363 20.3209 158.331 20.4002 158.265 20.4656C158.209 20.5216 158.135 20.5496 158.041 20.5496H157.425ZM163.267 20.5496C161.82 20.5496 161.097 19.7329 161.097 18.0996V14.3476H159.991C159.897 14.3476 159.823 14.3196 159.767 14.2636C159.711 14.2076 159.683 14.1329 159.683 14.0396V13.5916C159.683 13.4982 159.711 13.4236 159.767 13.3676C159.823 13.3022 159.897 13.2696 159.991 13.2696H161.097V10.9316C161.097 10.8382 161.125 10.7636 161.181 10.7076C161.237 10.6422 161.311 10.6096 161.405 10.6096H162.021C162.114 10.6096 162.189 10.6422 162.245 10.7076C162.31 10.7636 162.343 10.8382 162.343 10.9316V13.2696H164.079C164.172 13.2696 164.247 13.3022 164.303 13.3676C164.368 13.4236 164.401 13.4982 164.401 13.5916V14.0396C164.401 14.1329 164.368 14.2076 164.303 14.2636C164.247 14.3196 164.172 14.3476 164.079 14.3476H162.343V18.0016C162.343 18.4776 162.417 18.8369 162.567 19.0796C162.725 19.3222 162.991 19.4436 163.365 19.4436H164.219C164.312 19.4436 164.387 19.4762 164.443 19.5416C164.499 19.5976 164.527 19.6722 164.527 19.7656V20.2276C164.527 20.3209 164.499 20.4002 164.443 20.4656C164.387 20.5216 164.312 20.5496 164.219 20.5496H163.267ZM168.806 20.6896C167.808 20.6896 167.028 20.4096 166.468 19.8496C165.908 19.2802 165.614 18.4869 165.586 17.4696L165.572 16.9096L165.586 16.3496C165.614 15.3322 165.908 14.5436 166.468 13.9836C167.028 13.4142 167.808 13.1296 168.806 13.1296C169.478 13.1296 170.043 13.2509 170.5 13.4936C170.967 13.7269 171.312 14.0209 171.536 14.3756C171.77 14.7302 171.896 15.0849 171.914 15.4396C171.924 15.5236 171.891 15.5982 171.816 15.6636C171.751 15.7289 171.676 15.7616 171.592 15.7616H170.976C170.883 15.7616 170.813 15.7429 170.766 15.7056C170.72 15.6589 170.673 15.5796 170.626 15.4676C170.458 15.0102 170.225 14.6882 169.926 14.5016C169.637 14.3056 169.268 14.2076 168.82 14.2076C168.232 14.2076 167.766 14.3896 167.42 14.7536C167.075 15.1176 166.888 15.6729 166.86 16.4196L166.846 16.9096L166.86 17.3996C166.888 18.1462 167.075 18.7016 167.42 19.0656C167.766 19.4296 168.232 19.6116 168.82 19.6116C169.278 19.6116 169.651 19.5182 169.94 19.3316C170.23 19.1356 170.458 18.8089 170.626 18.3516C170.673 18.2396 170.72 18.1649 170.766 18.1276C170.813 18.0809 170.883 18.0576 170.976 18.0576H171.592C171.676 18.0576 171.751 18.0902 171.816 18.1556C171.891 18.2209 171.924 18.2956 171.914 18.3796C171.896 18.7249 171.77 19.0749 171.536 19.4296C171.312 19.7842 170.967 20.0829 170.5 20.3256C170.043 20.5682 169.478 20.6896 168.806 20.6896ZM173.928 20.5496C173.834 20.5496 173.755 20.5216 173.69 20.4656C173.634 20.4002 173.606 20.3209 173.606 20.2276V10.9316C173.606 10.8289 173.634 10.7496 173.69 10.6936C173.755 10.6376 173.834 10.6096 173.928 10.6096H174.572C174.674 10.6096 174.754 10.6376 174.81 10.6936C174.866 10.7496 174.894 10.8289 174.894 10.9316V14.1936C175.164 13.8482 175.482 13.5869 175.846 13.4096C176.219 13.2229 176.676 13.1296 177.218 13.1296C178.114 13.1296 178.809 13.4189 179.304 13.9976C179.808 14.5669 180.06 15.3229 180.06 16.2656V20.2276C180.06 20.3209 180.027 20.4002 179.962 20.4656C179.906 20.5216 179.831 20.5496 179.738 20.5496H179.08C178.986 20.5496 178.907 20.5216 178.842 20.4656C178.786 20.4002 178.758 20.3209 178.758 20.2276V16.3496C178.758 15.6776 178.594 15.1549 178.268 14.7816C177.941 14.4082 177.47 14.2216 176.854 14.2216C176.256 14.2216 175.78 14.4129 175.426 14.7956C175.071 15.1689 174.894 15.6869 174.894 16.3496V20.2276C174.894 20.3209 174.861 20.4002 174.796 20.4656C174.74 20.5216 174.665 20.5496 174.572 20.5496H173.928Z" fill="#4F5665"/>
<path d="M11.3962 20.2796C11.2649 20.2798 11.1349 20.2542 11.0135 20.2041C10.8922 20.154 10.782 20.0804 10.6892 19.9876L6.44716 15.7446C6.35159 15.6524 6.27533 15.5421 6.22283 15.4201C6.17034 15.2982 6.14266 15.167 6.14142 15.0342C6.14017 14.9014 6.16538 14.7697 6.21557 14.6468C6.26577 14.5238 6.33994 14.4121 6.43377 14.3182C6.52759 14.2242 6.63919 14.1499 6.76205 14.0995C6.88491 14.0492 7.01657 14.0238 7.14935 14.0248C7.28213 14.0259 7.41336 14.0534 7.53541 14.1057C7.65745 14.158 7.76784 14.2341 7.86016 14.3296L11.3952 17.8646L17.7602 11.5016C17.9477 11.3139 18.202 11.2085 18.4673 11.2084C18.7326 11.2083 18.987 11.3136 19.1747 11.5011C19.3623 11.6886 19.4678 11.9429 19.4679 12.2082C19.468 12.4735 19.3627 12.7279 19.1752 12.9156L12.1032 19.9876C12.0103 20.0804 11.9001 20.154 11.7788 20.2041C11.6575 20.2542 11.5274 20.2798 11.3962 20.2796Z" fill="#2FAB73"/>
</svg>
