<svg width="192" height="31" viewBox="0 0 192 31" fill="none" xmlns="http://www.w3.org/2000/svg">
<path d="M46.6718 20.5496C46.5784 20.5496 46.5038 20.5216 46.4478 20.4656C46.3918 20.4002 46.3638 20.3209 46.3638 20.2276V11.0856C46.3638 10.9829 46.3918 10.9036 46.4478 10.8476C46.5038 10.7822 46.5784 10.7496 46.6718 10.7496H52.4258C52.5284 10.7496 52.6078 10.7822 52.6638 10.8476C52.7291 10.9036 52.7618 10.9829 52.7618 11.0856V11.5896C52.7618 11.6829 52.7291 11.7576 52.6638 11.8136C52.6078 11.8696 52.5284 11.8976 52.4258 11.8976H47.6518V15.0196H52.1178C52.2204 15.0196 52.2998 15.0522 52.3558 15.1176C52.4211 15.1736 52.4538 15.2529 52.4538 15.3556V15.8316C52.4538 15.9249 52.4211 16.0042 52.3558 16.0696C52.2998 16.1256 52.2204 16.1536 52.1178 16.1536H47.6518V19.3876H52.5378C52.6404 19.3876 52.7198 19.4202 52.7758 19.4856C52.8411 19.5416 52.8738 19.6209 52.8738 19.7236V20.2276C52.8738 20.3209 52.8411 20.4002 52.7758 20.4656C52.7104 20.5216 52.6311 20.5496 52.5378 20.5496H46.6718ZM54.9803 20.5496C54.887 20.5496 54.8077 20.5216 54.7423 20.4656C54.6863 20.4002 54.6583 20.3209 54.6583 20.2276V13.5916C54.6583 13.4982 54.6863 13.4236 54.7423 13.3676C54.8077 13.3022 54.887 13.2696 54.9803 13.2696H55.5823C55.685 13.2696 55.7643 13.2976 55.8203 13.3536C55.8763 13.4096 55.9043 13.4889 55.9043 13.5916V14.2076C56.1843 13.8622 56.5063 13.5962 56.8703 13.4096C57.2437 13.2229 57.7057 13.1296 58.2563 13.1296C59.1523 13.1296 59.8477 13.4189 60.3423 13.9976C60.837 14.5669 61.0843 15.3229 61.0843 16.2656V20.2276C61.0843 20.3209 61.0517 20.4002 60.9863 20.4656C60.9303 20.5216 60.8557 20.5496 60.7623 20.5496H60.1183C60.025 20.5496 59.9457 20.5216 59.8803 20.4656C59.8243 20.4002 59.7963 20.3209 59.7963 20.2276V16.3496C59.7963 15.6776 59.633 15.1549 59.3063 14.7816C58.9797 14.4082 58.513 14.2216 57.9063 14.2216C57.309 14.2216 56.833 14.4129 56.4783 14.7956C56.1237 15.1689 55.9463 15.6869 55.9463 16.3496V20.2276C55.9463 20.3209 55.9137 20.4002 55.8483 20.4656C55.7923 20.5216 55.7177 20.5496 55.6243 20.5496H54.9803ZM66.0196 20.6896C65.0209 20.6896 64.2416 20.4096 63.6816 19.8496C63.1216 19.2802 62.8276 18.4869 62.7996 17.4696L62.7856 16.9096L62.7996 16.3496C62.8276 15.3322 63.1216 14.5436 63.6816 13.9836C64.2416 13.4142 65.0209 13.1296 66.0196 13.1296C66.6916 13.1296 67.2562 13.2509 67.7136 13.4936C68.1802 13.7269 68.5256 14.0209 68.7496 14.3756C68.9829 14.7302 69.1089 15.0849 69.1276 15.4396C69.1369 15.5236 69.1042 15.5982 69.0296 15.6636C68.9642 15.7289 68.8896 15.7616 68.8056 15.7616H68.1896C68.0962 15.7616 68.0262 15.7429 67.9796 15.7056C67.9329 15.6589 67.8862 15.5796 67.8396 15.4676C67.6716 15.0102 67.4382 14.6882 67.1396 14.5016C66.8502 14.3056 66.4816 14.2076 66.0336 14.2076C65.4456 14.2076 64.9789 14.3896 64.6336 14.7536C64.2882 15.1176 64.1016 15.6729 64.0736 16.4196L64.0596 16.9096L64.0736 17.3996C64.1016 18.1462 64.2882 18.7016 64.6336 19.0656C64.9789 19.4296 65.4456 19.6116 66.0336 19.6116C66.4909 19.6116 66.8642 19.5182 67.1536 19.3316C67.4429 19.1356 67.6716 18.8089 67.8396 18.3516C67.8862 18.2396 67.9329 18.1649 67.9796 18.1276C68.0262 18.0809 68.0962 18.0576 68.1896 18.0576H68.8056C68.8896 18.0576 68.9642 18.0902 69.0296 18.1556C69.1042 18.2209 69.1369 18.2956 69.1276 18.3796C69.1089 18.7249 68.9829 19.0749 68.7496 19.4296C68.5256 19.7842 68.1802 20.0829 67.7136 20.3256C67.2562 20.5682 66.6916 20.6896 66.0196 20.6896ZM71.1268 20.5496C71.0335 20.5496 70.9542 20.5216 70.8888 20.4656C70.8328 20.4002 70.8048 20.3209 70.8048 20.2276V13.6056C70.8048 13.5122 70.8328 13.4329 70.8888 13.3676C70.9542 13.3022 71.0335 13.2696 71.1268 13.2696H71.7148C71.8175 13.2696 71.8968 13.3022 71.9528 13.3676C72.0182 13.4236 72.0508 13.5029 72.0508 13.6056V14.2216C72.4335 13.5869 73.0822 13.2696 73.9968 13.2696H74.5428C74.6455 13.2696 74.7248 13.2976 74.7808 13.3536C74.8368 13.4096 74.8648 13.4889 74.8648 13.5916V14.1096C74.8648 14.2029 74.8368 14.2822 74.7808 14.3476C74.7248 14.4036 74.6455 14.4316 74.5428 14.4316H73.7448C73.2315 14.4316 72.8255 14.5809 72.5268 14.8796C72.2375 15.1782 72.0928 15.5842 72.0928 16.0976V20.2276C72.0928 20.3209 72.0602 20.4002 71.9948 20.4656C71.9295 20.5216 71.8502 20.5496 71.7568 20.5496H71.1268ZM77.3425 23.2096C77.2585 23.2096 77.1885 23.1816 77.1325 23.1256C77.0765 23.0696 77.0485 23.0042 77.0485 22.9296C77.0485 22.9016 77.0718 22.8176 77.1185 22.6776L78.2105 20.1156L75.5365 13.8016C75.4805 13.6896 75.4525 13.6102 75.4525 13.5636C75.4618 13.4796 75.4945 13.4096 75.5505 13.3536C75.6065 13.2976 75.6718 13.2696 75.7465 13.2696H76.3905C76.5398 13.2696 76.6518 13.3442 76.7265 13.4936L78.8825 18.6456L81.0945 13.4936C81.1692 13.3442 81.2812 13.2696 81.4305 13.2696H82.0605C82.1352 13.2696 82.2005 13.2976 82.2565 13.3536C82.3125 13.4096 82.3405 13.4749 82.3405 13.5496C82.3405 13.6149 82.3172 13.6989 82.2705 13.8016L78.3085 22.9856C78.2618 23.0602 78.2105 23.1162 78.1545 23.1536C78.1078 23.1909 78.0425 23.2096 77.9585 23.2096H77.3425ZM84.0881 23.2096C83.9948 23.2096 83.9154 23.1816 83.8501 23.1256C83.7941 23.0696 83.7661 22.9902 83.7661 22.8876V13.5916C83.7661 13.4889 83.7941 13.4096 83.8501 13.3536C83.9154 13.2976 83.9948 13.2696 84.0881 13.2696H84.6761C84.7788 13.2696 84.8581 13.2976 84.9141 13.3536C84.9701 13.4096 84.9981 13.4889 84.9981 13.5916V14.2076C85.5394 13.4889 86.3094 13.1296 87.3081 13.1296C88.2881 13.1296 89.0208 13.4422 89.5061 14.0676C90.0008 14.6836 90.2621 15.4722 90.2901 16.4336C90.2994 16.5362 90.3041 16.6949 90.3041 16.9096C90.3041 17.1242 90.2994 17.2829 90.2901 17.3856C90.2621 18.3376 90.0008 19.1262 89.5061 19.7516C89.0208 20.3769 88.2881 20.6896 87.3081 20.6896C86.3094 20.6896 85.5534 20.3349 85.0401 19.6256V22.8876C85.0401 22.9809 85.0074 23.0556 84.9421 23.1116C84.8861 23.1769 84.8114 23.2096 84.7181 23.2096H84.0881ZM87.0421 19.5976C87.7141 19.5976 88.2041 19.3876 88.5121 18.9676C88.8201 18.5476 88.9881 17.9969 89.0161 17.3156C89.0254 17.2222 89.0301 17.0869 89.0301 16.9096C89.0301 15.1176 88.3674 14.2216 87.0421 14.2216C86.3888 14.2216 85.8941 14.4409 85.5581 14.8796C85.2314 15.3089 85.0588 15.8176 85.0401 16.4056C85.0308 16.5082 85.0261 16.6902 85.0261 16.9516C85.0261 17.2129 85.0308 17.3949 85.0401 17.4976C85.0588 18.0669 85.2361 18.5616 85.5721 18.9816C85.9174 19.3922 86.4074 19.5976 87.0421 19.5976ZM94.7826 20.5496C93.3359 20.5496 92.6126 19.7329 92.6126 18.0996V14.3476H91.5066C91.4132 14.3476 91.3386 14.3196 91.2826 14.2636C91.2266 14.2076 91.1986 14.1329 91.1986 14.0396V13.5916C91.1986 13.4982 91.2266 13.4236 91.2826 13.3676C91.3386 13.3022 91.4132 13.2696 91.5066 13.2696H92.6126V10.9316C92.6126 10.8382 92.6406 10.7636 92.6966 10.7076C92.7526 10.6422 92.8272 10.6096 92.9206 10.6096H93.5366C93.6299 10.6096 93.7046 10.6422 93.7606 10.7076C93.8259 10.7636 93.8586 10.8382 93.8586 10.9316V13.2696H95.5946C95.6879 13.2696 95.7626 13.3022 95.8186 13.3676C95.8839 13.4236 95.9166 13.4982 95.9166 13.5916V14.0396C95.9166 14.1329 95.8839 14.2076 95.8186 14.2636C95.7626 14.3196 95.6879 14.3476 95.5946 14.3476H93.8586V18.0016C93.8586 18.4776 93.9332 18.8369 94.0826 19.0796C94.2412 19.3222 94.5072 19.4436 94.8806 19.4436H95.7346C95.8279 19.4436 95.9026 19.4762 95.9586 19.5416C96.0146 19.5976 96.0426 19.6722 96.0426 19.7656V20.2276C96.0426 20.3209 96.0146 20.4002 95.9586 20.4656C95.9026 20.5216 95.8279 20.5496 95.7346 20.5496H94.7826ZM100.294 20.6896C99.3423 20.6896 98.5816 20.3956 98.0123 19.8076C97.443 19.2102 97.1303 18.3982 97.0743 17.3716L97.0603 16.8956L97.0743 16.4336C97.1303 15.4256 97.443 14.6229 98.0123 14.0256C98.5816 13.4282 99.3423 13.1296 100.294 13.1296C101.321 13.1296 102.114 13.4562 102.674 14.1096C103.244 14.7629 103.528 15.6496 103.528 16.7696V17.0216C103.528 17.1149 103.496 17.1942 103.43 17.2596C103.374 17.3156 103.3 17.3436 103.206 17.3436H98.3483V17.4696C98.3763 18.0762 98.563 18.5942 98.9083 19.0236C99.2536 19.4529 99.711 19.6676 100.28 19.6676C100.719 19.6676 101.074 19.5836 101.344 19.4156C101.624 19.2382 101.834 19.0562 101.974 18.8696C102.058 18.7576 102.124 18.6922 102.17 18.6736C102.217 18.6456 102.296 18.6316 102.408 18.6316H103.024C103.108 18.6316 103.178 18.6549 103.234 18.7016C103.3 18.7482 103.332 18.8089 103.332 18.8836C103.332 19.0889 103.206 19.3362 102.954 19.6256C102.702 19.9149 102.343 20.1669 101.876 20.3816C101.419 20.5869 100.892 20.6896 100.294 20.6896ZM102.254 16.3916V16.3496C102.254 15.6962 102.077 15.1642 101.722 14.7536C101.368 14.3429 100.892 14.1376 100.294 14.1376C99.6876 14.1376 99.2116 14.3429 98.8663 14.7536C98.521 15.1642 98.3483 15.6962 98.3483 16.3496V16.3916H102.254ZM107.891 20.6896C106.911 20.6896 106.173 20.3722 105.679 19.7376C105.193 19.1029 104.932 18.3002 104.895 17.3296L104.881 16.9096L104.895 16.4896C104.932 15.5282 105.198 14.7302 105.693 14.0956C106.187 13.4516 106.92 13.1296 107.891 13.1296C108.861 13.1296 109.617 13.4749 110.159 14.1656V10.9316C110.159 10.8382 110.187 10.7636 110.243 10.7076C110.308 10.6422 110.387 10.6096 110.481 10.6096H111.111C111.204 10.6096 111.279 10.6422 111.335 10.7076C111.4 10.7636 111.433 10.8382 111.433 10.9316V20.2276C111.433 20.3209 111.4 20.4002 111.335 20.4656C111.279 20.5216 111.204 20.5496 111.111 20.5496H110.509C110.415 20.5496 110.341 20.5216 110.285 20.4656C110.229 20.4002 110.201 20.3209 110.201 20.2276V19.6256C109.669 20.3349 108.899 20.6896 107.891 20.6896ZM108.157 19.5976C108.81 19.5976 109.3 19.3829 109.627 18.9536C109.953 18.5149 110.131 17.9969 110.159 17.3996C110.168 17.2969 110.173 17.1196 110.173 16.8676C110.173 16.6062 110.168 16.4242 110.159 16.3216C110.14 15.7522 109.958 15.2622 109.613 14.8516C109.277 14.4316 108.791 14.2216 108.157 14.2216C107.485 14.2216 106.995 14.4316 106.687 14.8516C106.379 15.2716 106.211 15.8222 106.183 16.5036L106.169 16.9096C106.169 18.7016 106.831 19.5976 108.157 19.5976ZM120.67 20.6896C119.429 20.6896 118.482 20.3536 117.828 19.6816C117.184 19.0002 116.839 18.0716 116.792 16.8956C116.783 16.6436 116.778 16.2329 116.778 15.6636C116.778 15.0849 116.783 14.6649 116.792 14.4036C116.839 13.2276 117.184 12.3036 117.828 11.6316C118.482 10.9502 119.429 10.6096 120.67 10.6096C121.501 10.6096 122.206 10.7589 122.784 11.0576C123.363 11.3469 123.797 11.7296 124.086 12.2056C124.385 12.6816 124.548 13.1902 124.576 13.7316C124.576 13.8156 124.544 13.8856 124.478 13.9416C124.422 13.9882 124.352 14.0116 124.268 14.0116H123.568C123.475 14.0116 123.4 13.9882 123.344 13.9416C123.288 13.8949 123.246 13.8156 123.218 13.7036C123.06 12.9849 122.77 12.4809 122.35 12.1916C121.94 11.9022 121.38 11.7576 120.67 11.7576C119.046 11.7576 118.202 12.6629 118.136 14.4736C118.127 14.7256 118.122 15.1129 118.122 15.6356C118.122 16.1582 118.127 16.5549 118.136 16.8256C118.202 18.6269 119.046 19.5276 120.67 19.5276C121.37 19.5276 121.93 19.3829 122.35 19.0936C122.77 18.8042 123.06 18.3049 123.218 17.5956C123.246 17.4836 123.288 17.4042 123.344 17.3576C123.4 17.3109 123.475 17.2876 123.568 17.2876H124.268C124.352 17.2876 124.422 17.3156 124.478 17.3716C124.544 17.4182 124.576 17.4836 124.576 17.5676C124.548 18.1089 124.385 18.6176 124.086 19.0936C123.797 19.5696 123.363 19.9569 122.784 20.2556C122.206 20.5449 121.501 20.6896 120.67 20.6896ZM129.253 20.6896C128.226 20.6896 127.433 20.4002 126.873 19.8216C126.322 19.2429 126.028 18.4729 125.991 17.5116L125.977 16.9096L125.991 16.3076C126.028 15.3462 126.327 14.5762 126.887 13.9976C127.456 13.4189 128.245 13.1296 129.253 13.1296C130.261 13.1296 131.045 13.4189 131.605 13.9976C132.174 14.5762 132.478 15.3462 132.515 16.3076C132.534 16.5129 132.543 16.7136 132.543 16.9096C132.543 17.1056 132.534 17.3062 132.515 17.5116C132.478 18.4729 132.179 19.2429 131.619 19.8216C131.068 20.4002 130.28 20.6896 129.253 20.6896ZM129.253 19.6396C129.85 19.6396 130.322 19.4529 130.667 19.0796C131.022 18.6969 131.213 18.1509 131.241 17.4416C131.25 17.3482 131.255 17.1709 131.255 16.9096C131.255 16.6482 131.25 16.4709 131.241 16.3776C131.213 15.6682 131.022 15.1269 130.667 14.7536C130.322 14.3709 129.85 14.1796 129.253 14.1796C128.656 14.1796 128.18 14.3709 127.825 14.7536C127.48 15.1269 127.293 15.6682 127.265 16.3776L127.251 16.9096L127.265 17.4416C127.293 18.1509 127.48 18.6969 127.825 19.0796C128.18 19.4529 128.656 19.6396 129.253 19.6396ZM134.633 20.5496C134.539 20.5496 134.46 20.5216 134.395 20.4656C134.339 20.4002 134.311 20.3209 134.311 20.2276V13.5916C134.311 13.4982 134.339 13.4236 134.395 13.3676C134.46 13.3022 134.539 13.2696 134.633 13.2696H135.235C135.337 13.2696 135.417 13.2976 135.473 13.3536C135.529 13.4096 135.557 13.4889 135.557 13.5916V14.2076C135.837 13.8622 136.159 13.5962 136.523 13.4096C136.896 13.2229 137.358 13.1296 137.909 13.1296C138.805 13.1296 139.5 13.4189 139.995 13.9976C140.489 14.5669 140.737 15.3229 140.737 16.2656V20.2276C140.737 20.3209 140.704 20.4002 140.639 20.4656C140.583 20.5216 140.508 20.5496 140.415 20.5496H139.771C139.677 20.5496 139.598 20.5216 139.533 20.4656C139.477 20.4002 139.449 20.3209 139.449 20.2276V16.3496C139.449 15.6776 139.285 15.1549 138.959 14.7816C138.632 14.4082 138.165 14.2216 137.559 14.2216C136.961 14.2216 136.485 14.4129 136.131 14.7956C135.776 15.1689 135.599 15.6869 135.599 16.3496V20.2276C135.599 20.3209 135.566 20.4002 135.501 20.4656C135.445 20.5216 135.37 20.5496 135.277 20.5496H134.633ZM143.082 20.5496C142.989 20.5496 142.909 20.5216 142.844 20.4656C142.788 20.4002 142.76 20.3209 142.76 20.2276V13.5916C142.76 13.4982 142.788 13.4236 142.844 13.3676C142.909 13.3022 142.989 13.2696 143.082 13.2696H143.684C143.787 13.2696 143.866 13.2976 143.922 13.3536C143.978 13.4096 144.006 13.4889 144.006 13.5916V14.2076C144.286 13.8622 144.608 13.5962 144.972 13.4096C145.345 13.2229 145.807 13.1296 146.358 13.1296C147.254 13.1296 147.949 13.4189 148.444 13.9976C148.939 14.5669 149.186 15.3229 149.186 16.2656V20.2276C149.186 20.3209 149.153 20.4002 149.088 20.4656C149.032 20.5216 148.957 20.5496 148.864 20.5496H148.22C148.127 20.5496 148.047 20.5216 147.982 20.4656C147.926 20.4002 147.898 20.3209 147.898 20.2276V16.3496C147.898 15.6776 147.735 15.1549 147.408 14.7816C147.081 14.4082 146.615 14.2216 146.008 14.2216C145.411 14.2216 144.935 14.4129 144.58 14.7956C144.225 15.1689 144.048 15.6869 144.048 16.3496V20.2276C144.048 20.3209 144.015 20.4002 143.95 20.4656C143.894 20.5216 143.819 20.5496 143.726 20.5496H143.082ZM154.093 20.6896C153.141 20.6896 152.38 20.3956 151.811 19.8076C151.242 19.2102 150.929 18.3982 150.873 17.3716L150.859 16.8956L150.873 16.4336C150.929 15.4256 151.242 14.6229 151.811 14.0256C152.38 13.4282 153.141 13.1296 154.093 13.1296C155.12 13.1296 155.913 13.4562 156.473 14.1096C157.042 14.7629 157.327 15.6496 157.327 16.7696V17.0216C157.327 17.1149 157.294 17.1942 157.229 17.2596C157.173 17.3156 157.098 17.3436 157.005 17.3436H152.147V17.4696C152.175 18.0762 152.362 18.5942 152.707 19.0236C153.052 19.4529 153.51 19.6676 154.079 19.6676C154.518 19.6676 154.872 19.5836 155.143 19.4156C155.423 19.2382 155.633 19.0562 155.773 18.8696C155.857 18.7576 155.922 18.6922 155.969 18.6736C156.016 18.6456 156.095 18.6316 156.207 18.6316H156.823C156.907 18.6316 156.977 18.6549 157.033 18.7016C157.098 18.7482 157.131 18.8089 157.131 18.8836C157.131 19.0889 157.005 19.3362 156.753 19.6256C156.501 19.9149 156.142 20.1669 155.675 20.3816C155.218 20.5869 154.69 20.6896 154.093 20.6896ZM156.053 16.3916V16.3496C156.053 15.6962 155.876 15.1642 155.521 14.7536C155.166 14.3429 154.69 14.1376 154.093 14.1376C153.486 14.1376 153.01 14.3429 152.665 14.7536C152.32 15.1642 152.147 15.6962 152.147 16.3496V16.3916H156.053ZM161.941 20.6896C160.943 20.6896 160.163 20.4096 159.603 19.8496C159.043 19.2802 158.749 18.4869 158.721 17.4696L158.707 16.9096L158.721 16.3496C158.749 15.3322 159.043 14.5436 159.603 13.9836C160.163 13.4142 160.943 13.1296 161.941 13.1296C162.613 13.1296 163.178 13.2509 163.635 13.4936C164.102 13.7269 164.447 14.0209 164.671 14.3756C164.905 14.7302 165.031 15.0849 165.049 15.4396C165.059 15.5236 165.026 15.5982 164.951 15.6636C164.886 15.7289 164.811 15.7616 164.727 15.7616H164.111C164.018 15.7616 163.948 15.7429 163.901 15.7056C163.855 15.6589 163.808 15.5796 163.761 15.4676C163.593 15.0102 163.36 14.6882 163.061 14.5016C162.772 14.3056 162.403 14.2076 161.955 14.2076C161.367 14.2076 160.901 14.3896 160.555 14.7536C160.21 15.1176 160.023 15.6729 159.995 16.4196L159.981 16.9096L159.995 17.3996C160.023 18.1462 160.21 18.7016 160.555 19.0656C160.901 19.4296 161.367 19.6116 161.955 19.6116C162.413 19.6116 162.786 19.5182 163.075 19.3316C163.365 19.1356 163.593 18.8089 163.761 18.3516C163.808 18.2396 163.855 18.1649 163.901 18.1276C163.948 18.0809 164.018 18.0576 164.111 18.0576H164.727C164.811 18.0576 164.886 18.0902 164.951 18.1556C165.026 18.2209 165.059 18.2956 165.049 18.3796C165.031 18.7249 164.905 19.0749 164.671 19.4296C164.447 19.7842 164.102 20.0829 163.635 20.3256C163.178 20.5682 162.613 20.6896 161.941 20.6896ZM169.527 20.5496C168.08 20.5496 167.357 19.7329 167.357 18.0996V14.3476H166.251C166.157 14.3476 166.083 14.3196 166.027 14.2636C165.971 14.2076 165.943 14.1329 165.943 14.0396V13.5916C165.943 13.4982 165.971 13.4236 166.027 13.3676C166.083 13.3022 166.157 13.2696 166.251 13.2696H167.357V10.9316C167.357 10.8382 167.385 10.7636 167.441 10.7076C167.497 10.6422 167.571 10.6096 167.665 10.6096H168.281C168.374 10.6096 168.449 10.6422 168.505 10.7076C168.57 10.7636 168.603 10.8382 168.603 10.9316V13.2696H170.339C170.432 13.2696 170.507 13.3022 170.563 13.3676C170.628 13.4236 170.661 13.4982 170.661 13.5916V14.0396C170.661 14.1329 170.628 14.2076 170.563 14.2636C170.507 14.3196 170.432 14.3476 170.339 14.3476H168.603V18.0016C168.603 18.4776 168.677 18.8369 168.827 19.0796C168.985 19.3222 169.251 19.4436 169.625 19.4436H170.479C170.572 19.4436 170.647 19.4762 170.703 19.5416C170.759 19.5976 170.787 19.6722 170.787 19.7656V20.2276C170.787 20.3209 170.759 20.4002 170.703 20.4656C170.647 20.5216 170.572 20.5496 170.479 20.5496H169.527ZM172.364 11.8976C172.271 11.8976 172.192 11.8696 172.126 11.8136C172.07 11.7482 172.042 11.6689 172.042 11.5756V10.8476C172.042 10.7542 172.07 10.6749 172.126 10.6096C172.192 10.5442 172.271 10.5116 172.364 10.5116H173.19C173.284 10.5116 173.363 10.5442 173.428 10.6096C173.494 10.6749 173.526 10.7542 173.526 10.8476V11.5756C173.526 11.6689 173.494 11.7482 173.428 11.8136C173.363 11.8696 173.284 11.8976 173.19 11.8976H172.364ZM172.476 20.5496C172.383 20.5496 172.304 20.5216 172.238 20.4656C172.182 20.4002 172.154 20.3209 172.154 20.2276V13.5916C172.154 13.4982 172.182 13.4236 172.238 13.3676C172.304 13.3022 172.383 13.2696 172.476 13.2696H173.092C173.186 13.2696 173.26 13.3022 173.316 13.3676C173.382 13.4236 173.414 13.4982 173.414 13.5916V20.2276C173.414 20.3209 173.382 20.4002 173.316 20.4656C173.26 20.5216 173.186 20.5496 173.092 20.5496H172.476ZM178.472 20.6896C177.445 20.6896 176.652 20.4002 176.092 19.8216C175.541 19.2429 175.247 18.4729 175.21 17.5116L175.196 16.9096L175.21 16.3076C175.247 15.3462 175.546 14.5762 176.106 13.9976C176.675 13.4189 177.464 13.1296 178.472 13.1296C179.48 13.1296 180.264 13.4189 180.824 13.9976C181.393 14.5762 181.696 15.3462 181.734 16.3076C181.752 16.5129 181.762 16.7136 181.762 16.9096C181.762 17.1056 181.752 17.3062 181.734 17.5116C181.696 18.4729 181.398 19.2429 180.838 19.8216C180.287 20.4002 179.498 20.6896 178.472 20.6896ZM178.472 19.6396C179.069 19.6396 179.54 19.4529 179.886 19.0796C180.24 18.6969 180.432 18.1509 180.46 17.4416C180.469 17.3482 180.474 17.1709 180.474 16.9096C180.474 16.6482 180.469 16.4709 180.46 16.3776C180.432 15.6682 180.24 15.1269 179.886 14.7536C179.54 14.3709 179.069 14.1796 178.472 14.1796C177.874 14.1796 177.398 14.3709 177.044 14.7536C176.698 15.1269 176.512 15.6682 176.484 16.3776L176.47 16.9096L176.484 17.4416C176.512 18.1509 176.698 18.6969 177.044 19.0796C177.398 19.4529 177.874 19.6396 178.472 19.6396ZM183.851 20.5496C183.758 20.5496 183.679 20.5216 183.613 20.4656C183.557 20.4002 183.529 20.3209 183.529 20.2276V13.5916C183.529 13.4982 183.557 13.4236 183.613 13.3676C183.679 13.3022 183.758 13.2696 183.851 13.2696H184.453C184.556 13.2696 184.635 13.2976 184.691 13.3536C184.747 13.4096 184.775 13.4889 184.775 13.5916V14.2076C185.055 13.8622 185.377 13.5962 185.741 13.4096C186.115 13.2229 186.577 13.1296 187.127 13.1296C188.023 13.1296 188.719 13.4189 189.213 13.9976C189.708 14.5669 189.955 15.3229 189.955 16.2656V20.2276C189.955 20.3209 189.923 20.4002 189.857 20.4656C189.801 20.5216 189.727 20.5496 189.633 20.5496H188.989C188.896 20.5496 188.817 20.5216 188.751 20.4656C188.695 20.4002 188.667 20.3209 188.667 20.2276V16.3496C188.667 15.6776 188.504 15.1549 188.177 14.7816C187.851 14.4082 187.384 14.2216 186.777 14.2216C186.18 14.2216 185.704 14.4129 185.349 14.7956C184.995 15.1689 184.817 15.6869 184.817 16.3496V20.2276C184.817 20.3209 184.785 20.4002 184.719 20.4656C184.663 20.5216 184.589 20.5496 184.495 20.5496H183.851Z" fill="#4F5665"/>
<path d="M11.3797 20.2796C11.2485 20.2798 11.1184 20.2542 10.9971 20.2041C10.8758 20.154 10.7655 20.0804 10.6727 19.9876L6.43073 15.7446C6.33515 15.6524 6.25889 15.5421 6.2064 15.4201C6.15391 15.2982 6.12623 15.167 6.12498 15.0342C6.12374 14.9014 6.14895 14.7697 6.19914 14.6468C6.24933 14.5238 6.32351 14.4121 6.41733 14.3182C6.51116 14.2242 6.62276 14.1499 6.74562 14.0995C6.86847 14.0492 7.00013 14.0238 7.13291 14.0248C7.26569 14.0259 7.39693 14.0534 7.51897 14.1057C7.64101 14.158 7.75141 14.2341 7.84373 14.3296L11.3787 17.8646L17.7437 11.5016C17.9312 11.3139 18.1856 11.2085 18.4509 11.2084C18.7161 11.2083 18.9706 11.3136 19.1582 11.5011C19.3459 11.6886 19.4513 11.9429 19.4514 12.2082C19.4515 12.4735 19.3462 12.7279 19.1587 12.9156L12.0867 19.9876C11.9939 20.0804 11.8837 20.154 11.7623 20.2041C11.641 20.2542 11.511 20.2798 11.3797 20.2796Z" fill="#2FAB73"/>
</svg>
