<svg width="140" height="31" viewBox="0 0 140 31" fill="none" xmlns="http://www.w3.org/2000/svg">
<path d="M10.6178 20.2796C10.4865 20.2798 10.3565 20.2542 10.2351 20.2041C10.1138 20.154 10.0036 20.0804 9.91076 19.9876L5.66876 15.7446C5.57319 15.6524 5.49693 15.5421 5.44444 15.4201C5.39194 15.2982 5.36427 15.167 5.36302 15.0342C5.36177 14.9014 5.38698 14.7697 5.43718 14.6468C5.48737 14.5238 5.56154 14.4121 5.65537 14.3182C5.74919 14.2242 5.86079 14.1499 5.98365 14.0995C6.10651 14.0492 6.23817 14.0238 6.37095 14.0248C6.50373 14.0259 6.63497 14.0534 6.75701 14.1057C6.87905 14.158 6.98945 14.2341 7.08176 14.3296L10.6168 17.8646L16.9818 11.5016C17.1693 11.3139 17.4236 11.2085 17.6889 11.2084C17.9542 11.2083 18.2086 11.3136 18.3963 11.5011C18.5839 11.6886 18.6894 11.9429 18.6895 12.2082C18.6896 12.4735 18.5843 12.7279 18.3968 12.9156L11.3248 19.9876C11.2319 20.0804 11.1217 20.154 11.0004 20.2041C10.8791 20.2542 10.749 20.2798 10.6178 20.2796Z" fill="#2FAB73"/>
<path d="M45.6718 20.5496C45.5784 20.5496 45.5038 20.5216 45.4478 20.4656C45.3918 20.4002 45.3638 20.3209 45.3638 20.2276V11.0856C45.3638 10.9829 45.3918 10.9036 45.4478 10.8476C45.5038 10.7822 45.5784 10.7496 45.6718 10.7496H46.2878C46.3811 10.7496 46.4511 10.7682 46.4978 10.8056C46.5444 10.8429 46.5911 10.8896 46.6378 10.9456L51.3278 18.1696V11.0856C51.3278 10.9829 51.3558 10.9036 51.4118 10.8476C51.4771 10.7822 51.5564 10.7496 51.6498 10.7496H52.2798C52.3824 10.7496 52.4618 10.7822 52.5178 10.8476C52.5831 10.9036 52.6158 10.9829 52.6158 11.0856V20.2136C52.6158 20.3069 52.5831 20.3862 52.5178 20.4516C52.4618 20.5169 52.3871 20.5496 52.2938 20.5496H51.6638C51.5051 20.5496 51.3931 20.4842 51.3278 20.3536L46.6378 13.1996V20.2276C46.6378 20.3209 46.6051 20.4002 46.5398 20.4656C46.4838 20.5216 46.4091 20.5496 46.3158 20.5496H45.6718ZM57.8428 20.6896C56.8161 20.6896 56.0228 20.4002 55.4628 19.8216C54.9121 19.2429 54.6181 18.4729 54.5808 17.5116L54.5668 16.9096L54.5808 16.3076C54.6181 15.3462 54.9168 14.5762 55.4768 13.9976C56.0461 13.4189 56.8348 13.1296 57.8428 13.1296C58.8508 13.1296 59.6348 13.4189 60.1948 13.9976C60.7641 14.5762 61.0675 15.3462 61.1048 16.3076C61.1235 16.5129 61.1328 16.7136 61.1328 16.9096C61.1328 17.1056 61.1235 17.3062 61.1048 17.5116C61.0675 18.4729 60.7688 19.2429 60.2088 19.8216C59.6581 20.4002 58.8695 20.6896 57.8428 20.6896ZM57.8428 19.6396C58.4401 19.6396 58.9115 19.4529 59.2568 19.0796C59.6115 18.6969 59.8028 18.1509 59.8308 17.4416C59.8401 17.3482 59.8448 17.1709 59.8448 16.9096C59.8448 16.6482 59.8401 16.4709 59.8308 16.3776C59.8028 15.6682 59.6115 15.1269 59.2568 14.7536C58.9115 14.3709 58.4401 14.1796 57.8428 14.1796C57.2455 14.1796 56.7695 14.3709 56.4148 14.7536C56.0695 15.1269 55.8828 15.6682 55.8548 16.3776L55.8408 16.9096L55.8548 17.4416C55.8828 18.1509 56.0695 18.6969 56.4148 19.0796C56.7695 19.4529 57.2455 19.6396 57.8428 19.6396ZM68.6364 20.5496C68.543 20.5496 68.4637 20.5216 68.3984 20.4656C68.3424 20.4002 68.3144 20.3209 68.3144 20.2276V11.9536H65.6124C65.519 11.9536 65.4397 11.9256 65.3744 11.8696C65.3184 11.8042 65.2904 11.7249 65.2904 11.6316V11.0856C65.2904 10.9829 65.3184 10.9036 65.3744 10.8476C65.4397 10.7822 65.519 10.7496 65.6124 10.7496H72.3324C72.435 10.7496 72.5144 10.7822 72.5704 10.8476C72.6264 10.9036 72.6544 10.9829 72.6544 11.0856V11.6316C72.6544 11.7249 72.6217 11.8042 72.5564 11.8696C72.5004 11.9256 72.4257 11.9536 72.3324 11.9536H69.6444V20.2276C69.6444 20.3209 69.6117 20.4002 69.5464 20.4656C69.481 20.5216 69.4017 20.5496 69.3084 20.5496H68.6364ZM73.2303 20.5496C73.137 20.5496 73.0577 20.5216 72.9923 20.4656C72.9363 20.4002 72.9083 20.3209 72.9083 20.2276V13.6056C72.9083 13.5122 72.9363 13.4329 72.9923 13.3676C73.0577 13.3022 73.137 13.2696 73.2303 13.2696H73.8183C73.921 13.2696 74.0003 13.3022 74.0563 13.3676C74.1217 13.4236 74.1543 13.5029 74.1543 13.6056V14.2216C74.537 13.5869 75.1857 13.2696 76.1003 13.2696H76.6463C76.749 13.2696 76.8283 13.2976 76.8843 13.3536C76.9403 13.4096 76.9683 13.4889 76.9683 13.5916V14.1096C76.9683 14.2029 76.9403 14.2822 76.8843 14.3476C76.8283 14.4036 76.749 14.4316 76.6463 14.4316H75.8483C75.335 14.4316 74.929 14.5809 74.6303 14.8796C74.341 15.1782 74.1963 15.5842 74.1963 16.0976V20.2276C74.1963 20.3209 74.1637 20.4002 74.0983 20.4656C74.033 20.5216 73.9537 20.5496 73.8603 20.5496H73.2303ZM80.0786 20.6896C79.6213 20.6896 79.1966 20.5962 78.8046 20.4096C78.422 20.2229 78.114 19.9709 77.8806 19.6536C77.6566 19.3269 77.5446 18.9676 77.5446 18.5756C77.5446 17.9596 77.7966 17.4556 78.3006 17.0636C78.8046 16.6716 79.4906 16.4102 80.3586 16.2796L82.4586 15.9856V15.5796C82.4586 14.6182 81.9033 14.1376 80.7926 14.1376C80.3633 14.1376 80.018 14.2262 79.7566 14.4036C79.4953 14.5716 79.304 14.7722 79.1826 15.0056C79.1453 15.0989 79.1033 15.1642 79.0566 15.2016C79.0193 15.2296 78.9633 15.2436 78.8886 15.2436H78.3426C78.2586 15.2436 78.184 15.2156 78.1186 15.1596C78.0626 15.0942 78.0346 15.0196 78.0346 14.9356C78.0346 14.7209 78.1326 14.4736 78.3286 14.1936C78.534 13.9042 78.8466 13.6569 79.2666 13.4516C79.6866 13.2369 80.2 13.1296 80.8066 13.1296C81.852 13.1296 82.5986 13.3722 83.0466 13.8576C83.504 14.3429 83.7326 14.9496 83.7326 15.6776V20.2276C83.7326 20.3209 83.7 20.4002 83.6346 20.4656C83.5786 20.5216 83.504 20.5496 83.4106 20.5496H82.7946C82.7013 20.5496 82.6266 20.5216 82.5706 20.4656C82.5146 20.4002 82.4866 20.3209 82.4866 20.2276V19.6116C82.2813 19.9196 81.9826 20.1762 81.5906 20.3816C81.1986 20.5869 80.6946 20.6896 80.0786 20.6896ZM80.3586 19.6676C80.9746 19.6676 81.4786 19.4669 81.8706 19.0656C82.2626 18.6642 82.4586 18.0809 82.4586 17.3156V16.9236L80.8206 17.1616C80.1486 17.2549 79.64 17.4136 79.2946 17.6376C78.9493 17.8616 78.7766 18.1416 78.7766 18.4776C78.7766 18.8602 78.9306 19.1542 79.2386 19.3596C79.556 19.5649 79.9293 19.6676 80.3586 19.6676ZM86.7415 20.5496C86.6482 20.5496 86.5689 20.5216 86.5035 20.4656C86.4475 20.4002 86.4195 20.3209 86.4195 20.2276V14.3476H85.2155C85.1222 14.3476 85.0429 14.3196 84.9775 14.2636C84.9215 14.2076 84.8935 14.1329 84.8935 14.0396V13.5916C84.8935 13.4982 84.9215 13.4236 84.9775 13.3676C85.0429 13.3022 85.1222 13.2696 85.2155 13.2696H86.4195V12.5696C86.4195 11.8136 86.6015 11.2302 86.9655 10.8196C87.3389 10.3996 87.9455 10.1896 88.7855 10.1896H89.6115C89.7049 10.1896 89.7795 10.2222 89.8355 10.2876C89.9009 10.3436 89.9335 10.4182 89.9335 10.5116V10.9596C89.9335 11.0529 89.9009 11.1276 89.8355 11.1836C89.7795 11.2396 89.7049 11.2676 89.6115 11.2676H88.8135C88.3842 11.2676 88.0855 11.3796 87.9175 11.6036C87.7495 11.8276 87.6655 12.1729 87.6655 12.6396V13.2696H90.6755V12.5696C90.6755 11.8136 90.8575 11.2302 91.2215 10.8196C91.5949 10.3996 92.2015 10.1896 93.0415 10.1896H95.1275C95.2302 10.1896 95.3095 10.2176 95.3655 10.2736C95.4215 10.3296 95.4495 10.4089 95.4495 10.5116V10.9596C95.4495 11.0529 95.4169 11.1276 95.3515 11.1836C95.2955 11.2396 95.2209 11.2676 95.1275 11.2676H93.0695C92.6402 11.2676 92.3415 11.3796 92.1735 11.6036C92.0055 11.8276 91.9215 12.1729 91.9215 12.6396V13.2696H95.1275C95.2302 13.2696 95.3095 13.2976 95.3655 13.3536C95.4215 13.4096 95.4495 13.4889 95.4495 13.5916V20.2276C95.4495 20.3209 95.4169 20.4002 95.3515 20.4656C95.2955 20.5216 95.2209 20.5496 95.1275 20.5496H94.5255C94.4322 20.5496 94.3529 20.5216 94.2875 20.4656C94.2315 20.4002 94.2035 20.3209 94.2035 20.2276V14.3476H91.9215V20.2276C91.9215 20.3209 91.8889 20.4002 91.8235 20.4656C91.7675 20.5216 91.6929 20.5496 91.5995 20.5496H90.9835C90.8902 20.5496 90.8155 20.5216 90.7595 20.4656C90.7035 20.4002 90.6755 20.3209 90.6755 20.2276V14.3476H87.6655V20.2276C87.6655 20.3209 87.6329 20.4002 87.5675 20.4656C87.5115 20.5216 87.4369 20.5496 87.3435 20.5496H86.7415ZM100.457 20.6896C99.4584 20.6896 98.6791 20.4096 98.1191 19.8496C97.5591 19.2802 97.2651 18.4869 97.2371 17.4696L97.2231 16.9096L97.2371 16.3496C97.2651 15.3322 97.5591 14.5436 98.1191 13.9836C98.6791 13.4142 99.4584 13.1296 100.457 13.1296C101.129 13.1296 101.694 13.2509 102.151 13.4936C102.618 13.7269 102.963 14.0209 103.187 14.3756C103.42 14.7302 103.546 15.0849 103.565 15.4396C103.574 15.5236 103.542 15.5982 103.467 15.6636C103.402 15.7289 103.327 15.7616 103.243 15.7616H102.627C102.534 15.7616 102.464 15.7429 102.417 15.7056C102.37 15.6589 102.324 15.5796 102.277 15.4676C102.109 15.0102 101.876 14.6882 101.577 14.5016C101.288 14.3056 100.919 14.2076 100.471 14.2076C99.8831 14.2076 99.4164 14.3896 99.0711 14.7536C98.7257 15.1176 98.5391 15.6729 98.5111 16.4196L98.4971 16.9096L98.5111 17.3996C98.5391 18.1462 98.7257 18.7016 99.0711 19.0656C99.4164 19.4296 99.8831 19.6116 100.471 19.6116C100.928 19.6116 101.302 19.5182 101.591 19.3316C101.88 19.1356 102.109 18.8089 102.277 18.3516C102.324 18.2396 102.37 18.1649 102.417 18.1276C102.464 18.0809 102.534 18.0576 102.627 18.0576H103.243C103.327 18.0576 103.402 18.0902 103.467 18.1556C103.542 18.2209 103.574 18.2956 103.565 18.3796C103.546 18.7249 103.42 19.0749 103.187 19.4296C102.963 19.7842 102.618 20.0829 102.151 20.3256C101.694 20.5682 101.129 20.6896 100.457 20.6896ZM109.178 20.5496C109.084 20.5496 109.01 20.5216 108.954 20.4656C108.898 20.4002 108.87 20.3209 108.87 20.2276V11.0716C108.87 10.9782 108.898 10.9036 108.954 10.8476C109.01 10.7822 109.084 10.7496 109.178 10.7496H109.878C109.971 10.7496 110.046 10.7822 110.102 10.8476C110.158 10.9036 110.186 10.9782 110.186 11.0716V19.3736H114.862C114.964 19.3736 115.044 19.4062 115.1 19.4716C115.165 19.5276 115.198 19.6022 115.198 19.6956V20.2276C115.198 20.3209 115.165 20.4002 115.1 20.4656C115.034 20.5216 114.955 20.5496 114.862 20.5496H109.178ZM119.339 20.6896C118.312 20.6896 117.519 20.4002 116.959 19.8216C116.408 19.2429 116.114 18.4729 116.077 17.5116L116.063 16.9096L116.077 16.3076C116.114 15.3462 116.413 14.5762 116.973 13.9976C117.542 13.4189 118.331 13.1296 119.339 13.1296C120.347 13.1296 121.131 13.4189 121.691 13.9976C122.26 14.5762 122.564 15.3462 122.601 16.3076C122.62 16.5129 122.629 16.7136 122.629 16.9096C122.629 17.1056 122.62 17.3062 122.601 17.5116C122.564 18.4729 122.265 19.2429 121.705 19.8216C121.154 20.4002 120.366 20.6896 119.339 20.6896ZM119.339 19.6396C119.936 19.6396 120.408 19.4529 120.753 19.0796C121.108 18.6969 121.299 18.1509 121.327 17.4416C121.336 17.3482 121.341 17.1709 121.341 16.9096C121.341 16.6482 121.336 16.4709 121.327 16.3776C121.299 15.6682 121.108 15.1269 120.753 14.7536C120.408 14.3709 119.936 14.1796 119.339 14.1796C118.742 14.1796 118.266 14.3709 117.911 14.7536C117.566 15.1269 117.379 15.6682 117.351 16.3776L117.337 16.9096L117.351 17.4416C117.379 18.1509 117.566 18.6969 117.911 19.0796C118.266 19.4529 118.742 19.6396 119.339 19.6396ZM127.351 23.6296C126.576 23.6296 125.955 23.4989 125.489 23.2376C125.022 22.9762 124.691 22.6776 124.495 22.3416C124.308 22.0056 124.215 21.7162 124.215 21.4736C124.215 21.3896 124.247 21.3149 124.313 21.2496C124.378 21.1936 124.453 21.1656 124.537 21.1656H125.153C125.237 21.1656 125.307 21.1842 125.363 21.2216C125.419 21.2682 125.465 21.3476 125.503 21.4596C125.764 22.2062 126.357 22.5796 127.281 22.5796C127.981 22.5796 128.499 22.4302 128.835 22.1316C129.171 21.8329 129.339 21.3056 129.339 20.5496V19.5836C128.797 20.2742 128.041 20.6196 127.071 20.6196C126.081 20.6196 125.339 20.3022 124.845 19.6676C124.359 19.0329 124.103 18.2302 124.075 17.2596L124.061 16.8676L124.075 16.4896C124.103 15.5282 124.359 14.7302 124.845 14.0956C125.339 13.4516 126.081 13.1296 127.071 13.1296C128.051 13.1296 128.816 13.4889 129.367 14.2076V13.6056C129.367 13.5122 129.395 13.4329 129.451 13.3676C129.516 13.3022 129.595 13.2696 129.689 13.2696H130.291C130.384 13.2696 130.459 13.3022 130.515 13.3676C130.58 13.4329 130.613 13.5122 130.613 13.6056V20.3956C130.613 22.5516 129.525 23.6296 127.351 23.6296ZM127.323 19.5276C127.976 19.5276 128.466 19.3176 128.793 18.8976C129.129 18.4682 129.311 17.9549 129.339 17.3576C129.348 17.2736 129.353 17.1102 129.353 16.8676C129.353 16.6342 129.348 16.4756 129.339 16.3916C129.311 15.7942 129.129 15.2856 128.793 14.8656C128.466 14.4362 127.976 14.2216 127.323 14.2216C126.651 14.2216 126.161 14.4362 125.853 14.8656C125.554 15.2856 125.391 15.8316 125.363 16.5036L125.349 16.8676L125.363 17.2456C125.391 17.9176 125.554 18.4682 125.853 18.8976C126.161 19.3176 126.651 19.5276 127.323 19.5276ZM135.215 20.6896C134.571 20.6896 134.025 20.5869 133.577 20.3816C133.138 20.1669 132.811 19.9242 132.597 19.6536C132.382 19.3829 132.275 19.1589 132.275 18.9816C132.275 18.8882 132.307 18.8182 132.373 18.7716C132.438 18.7156 132.508 18.6876 132.583 18.6876H133.171C133.227 18.6876 133.269 18.6969 133.297 18.7156C133.334 18.7342 133.381 18.7762 133.437 18.8416C133.651 19.1029 133.889 19.3082 134.151 19.4576C134.421 19.6069 134.781 19.6816 135.229 19.6816C135.733 19.6816 136.134 19.5882 136.433 19.4016C136.741 19.2149 136.895 18.9442 136.895 18.5896C136.895 18.3562 136.829 18.1696 136.699 18.0296C136.568 17.8896 136.349 17.7636 136.041 17.6516C135.742 17.5396 135.294 17.4182 134.697 17.2876C133.885 17.1102 133.311 16.8536 132.975 16.5176C132.639 16.1816 132.471 15.7476 132.471 15.2156C132.471 14.8702 132.573 14.5389 132.779 14.2216C132.984 13.8949 133.287 13.6336 133.689 13.4376C134.099 13.2322 134.585 13.1296 135.145 13.1296C135.733 13.1296 136.232 13.2276 136.643 13.4236C137.063 13.6196 137.375 13.8482 137.581 14.1096C137.795 14.3709 137.903 14.5902 137.903 14.7676C137.903 14.8516 137.87 14.9216 137.805 14.9776C137.749 15.0336 137.679 15.0616 137.595 15.0616H137.063C136.932 15.0616 136.839 15.0102 136.783 14.9076C136.624 14.7302 136.489 14.5949 136.377 14.5016C136.274 14.3989 136.12 14.3149 135.915 14.2496C135.709 14.1749 135.453 14.1376 135.145 14.1376C134.687 14.1376 134.337 14.2356 134.095 14.4316C133.852 14.6182 133.731 14.8702 133.731 15.1876C133.731 15.3836 133.782 15.5516 133.885 15.6916C133.987 15.8222 134.183 15.9482 134.473 16.0696C134.762 16.1816 135.191 16.2982 135.761 16.4196C136.647 16.6062 137.273 16.8722 137.637 17.2176C138.01 17.5629 138.197 18.0062 138.197 18.5476C138.197 18.9489 138.08 19.3129 137.847 19.6396C137.623 19.9662 137.282 20.2229 136.825 20.4096C136.377 20.5962 135.84 20.6896 135.215 20.6896Z" fill="#4F5665"/>
</svg>
