<svg width="178" height="31" viewBox="0 0 178 31" fill="none" xmlns="http://www.w3.org/2000/svg">
<path d="M11.3542 20.2796C11.2229 20.2798 11.0929 20.2542 10.9716 20.2041C10.8503 20.154 10.74 20.0804 10.6472 19.9876L6.40521 15.7446C6.30964 15.6524 6.23338 15.5421 6.18089 15.4201C6.12839 15.2982 6.10072 15.167 6.09947 15.0342C6.09822 14.9014 6.12343 14.7697 6.17363 14.6468C6.22382 14.5238 6.29799 14.4121 6.39182 14.3182C6.48565 14.2242 6.59724 14.1499 6.7201 14.0995C6.84296 14.0492 6.97462 14.0238 7.1074 14.0248C7.24018 14.0259 7.37142 14.0534 7.49346 14.1057C7.6155 14.158 7.7259 14.2341 7.81821 14.3296L11.3532 17.8646L17.7182 11.5016C17.9057 11.3139 18.1601 11.2085 18.4254 11.2084C18.6906 11.2083 18.9451 11.3136 19.1327 11.5011C19.3204 11.6886 19.4258 11.9429 19.4259 12.2082C19.426 12.4735 19.3207 12.7279 19.1332 12.9156L12.0612 19.9876C11.9684 20.0804 11.8582 20.154 11.7368 20.2041C11.6155 20.2542 11.4855 20.2798 11.3542 20.2796Z" fill="#2FAB73"/>
<path d="M48.0158 20.5496C47.7824 20.5496 47.6378 20.4282 47.5818 20.1856L45.7758 11.1836L45.7478 11.0296C45.7478 10.9549 45.7758 10.8896 45.8318 10.8336C45.8878 10.7776 45.9531 10.7496 46.0278 10.7496H46.7138C46.9098 10.7496 47.0218 10.8289 47.0498 10.9876L48.4918 18.2956L50.0458 13.2556C50.1018 13.0316 50.2464 12.9196 50.4798 12.9196H50.9698C51.1938 12.9196 51.3431 13.0316 51.4178 13.2556L52.9578 18.2956L54.3998 10.9876C54.4278 10.8289 54.5444 10.7496 54.7498 10.7496H55.4218C55.4964 10.7496 55.5618 10.7776 55.6178 10.8336C55.6738 10.8896 55.7018 10.9549 55.7018 11.0296C55.7018 11.0856 55.6971 11.1369 55.6878 11.1836L53.8678 20.1856C53.8211 20.4282 53.6764 20.5496 53.4338 20.5496H52.9298C52.6964 20.5496 52.5424 20.4329 52.4678 20.1996L50.7318 14.8096L48.9818 20.1996C48.9164 20.4329 48.7671 20.5496 48.5338 20.5496H48.0158ZM60.0186 20.6896C58.9919 20.6896 58.1986 20.4002 57.6386 19.8216C57.0879 19.2429 56.7939 18.4729 56.7566 17.5116L56.7426 16.9096L56.7566 16.3076C56.7939 15.3462 57.0926 14.5762 57.6526 13.9976C58.2219 13.4189 59.0106 13.1296 60.0186 13.1296C61.0266 13.1296 61.8106 13.4189 62.3706 13.9976C62.9399 14.5762 63.2433 15.3462 63.2806 16.3076C63.2993 16.5129 63.3086 16.7136 63.3086 16.9096C63.3086 17.1056 63.2993 17.3062 63.2806 17.5116C63.2433 18.4729 62.9446 19.2429 62.3846 19.8216C61.8339 20.4002 61.0453 20.6896 60.0186 20.6896ZM60.0186 19.6396C60.6159 19.6396 61.0873 19.4529 61.4326 19.0796C61.7873 18.6969 61.9786 18.1509 62.0066 17.4416C62.0159 17.3482 62.0206 17.1709 62.0206 16.9096C62.0206 16.6482 62.0159 16.4709 62.0066 16.3776C61.9786 15.6682 61.7873 15.1269 61.4326 14.7536C61.0873 14.3709 60.6159 14.1796 60.0186 14.1796C59.4213 14.1796 58.9453 14.3709 58.5906 14.7536C58.2453 15.1269 58.0586 15.6682 58.0306 16.3776L58.0166 16.9096L58.0306 17.4416C58.0586 18.1509 58.2453 18.6969 58.5906 19.0796C58.9453 19.4529 59.4213 19.6396 60.0186 19.6396ZM65.3983 20.5496C65.305 20.5496 65.2256 20.5216 65.1603 20.4656C65.1043 20.4002 65.0763 20.3209 65.0763 20.2276V13.6056C65.0763 13.5122 65.1043 13.4329 65.1603 13.3676C65.2256 13.3022 65.305 13.2696 65.3983 13.2696H65.9863C66.089 13.2696 66.1683 13.3022 66.2243 13.3676C66.2896 13.4236 66.3223 13.5029 66.3223 13.6056V14.2216C66.705 13.5869 67.3536 13.2696 68.2683 13.2696H68.8143C68.917 13.2696 68.9963 13.2976 69.0523 13.3536C69.1083 13.4096 69.1363 13.4889 69.1363 13.5916V14.1096C69.1363 14.2029 69.1083 14.2822 69.0523 14.3476C68.9963 14.4036 68.917 14.4316 68.8143 14.4316H68.0163C67.503 14.4316 67.097 14.5809 66.7983 14.8796C66.509 15.1782 66.3643 15.5842 66.3643 16.0976V20.2276C66.3643 20.3209 66.3316 20.4002 66.2663 20.4656C66.201 20.5216 66.1216 20.5496 66.0283 20.5496H65.3983ZM70.676 20.5496C70.5826 20.5496 70.5033 20.5216 70.438 20.4656C70.382 20.4002 70.354 20.3209 70.354 20.2276V10.9316C70.354 10.8289 70.382 10.7496 70.438 10.6936C70.5033 10.6376 70.5826 10.6096 70.676 10.6096H71.278C71.3713 10.6096 71.446 10.6422 71.502 10.7076C71.5673 10.7636 71.6 10.8382 71.6 10.9316V15.8176L74.4 13.5076C74.54 13.4049 74.638 13.3396 74.694 13.3116C74.75 13.2836 74.8386 13.2696 74.96 13.2696H75.66C75.744 13.2696 75.8093 13.2976 75.856 13.3536C75.912 13.4002 75.94 13.4702 75.94 13.5636C75.94 13.6476 75.8886 13.7362 75.786 13.8296L72.51 16.5176L76.136 19.9896C76.2386 20.0922 76.29 20.1809 76.29 20.2556C76.29 20.3396 76.262 20.4096 76.206 20.4656C76.1593 20.5216 76.094 20.5496 76.01 20.5496H75.324C75.184 20.5496 75.0813 20.5356 75.016 20.5076C74.96 20.4796 74.876 20.4142 74.764 20.3116L71.6 17.3156V20.2276C71.6 20.3209 71.5673 20.4002 71.502 20.4656C71.446 20.5216 71.3713 20.5496 71.278 20.5496H70.676ZM79.873 20.6896C79.229 20.6896 78.683 20.5869 78.235 20.3816C77.7963 20.1669 77.4697 19.9242 77.255 19.6536C77.0403 19.3829 76.933 19.1589 76.933 18.9816C76.933 18.8882 76.9657 18.8182 77.031 18.7716C77.0963 18.7156 77.1663 18.6876 77.241 18.6876H77.829C77.885 18.6876 77.927 18.6969 77.955 18.7156C77.9923 18.7342 78.039 18.7762 78.095 18.8416C78.3097 19.1029 78.5477 19.3082 78.809 19.4576C79.0797 19.6069 79.439 19.6816 79.887 19.6816C80.391 19.6816 80.7923 19.5882 81.091 19.4016C81.399 19.2149 81.553 18.9442 81.553 18.5896C81.553 18.3562 81.4877 18.1696 81.357 18.0296C81.2263 17.8896 81.007 17.7636 80.699 17.6516C80.4003 17.5396 79.9523 17.4182 79.355 17.2876C78.543 17.1102 77.969 16.8536 77.633 16.5176C77.297 16.1816 77.129 15.7476 77.129 15.2156C77.129 14.8702 77.2317 14.5389 77.437 14.2216C77.6423 13.8949 77.9457 13.6336 78.347 13.4376C78.7577 13.2322 79.243 13.1296 79.803 13.1296C80.391 13.1296 80.8903 13.2276 81.301 13.4236C81.721 13.6196 82.0337 13.8482 82.239 14.1096C82.4537 14.3709 82.561 14.5902 82.561 14.7676C82.561 14.8516 82.5283 14.9216 82.463 14.9776C82.407 15.0336 82.337 15.0616 82.253 15.0616H81.721C81.5903 15.0616 81.497 15.0102 81.441 14.9076C81.2823 14.7302 81.147 14.5949 81.035 14.5016C80.9323 14.3989 80.7783 14.3149 80.573 14.2496C80.3677 14.1749 80.111 14.1376 79.803 14.1376C79.3457 14.1376 78.9957 14.2356 78.753 14.4316C78.5103 14.6182 78.389 14.8702 78.389 15.1876C78.389 15.3836 78.4403 15.5516 78.543 15.6916C78.6457 15.8222 78.8417 15.9482 79.131 16.0696C79.4203 16.1816 79.8497 16.2982 80.419 16.4196C81.3057 16.6062 81.931 16.8722 82.295 17.2176C82.6683 17.5629 82.855 18.0062 82.855 18.5476C82.855 18.9489 82.7383 19.3129 82.505 19.6396C82.281 19.9662 81.9403 20.2229 81.483 20.4096C81.035 20.5962 80.4983 20.6896 79.873 20.6896ZM90.8897 20.6896C89.863 20.6896 89.0697 20.4002 88.5097 19.8216C87.959 19.2429 87.665 18.4729 87.6277 17.5116L87.6137 16.9096L87.6277 16.3076C87.665 15.3462 87.9637 14.5762 88.5237 13.9976C89.093 13.4189 89.8817 13.1296 90.8897 13.1296C91.8977 13.1296 92.6817 13.4189 93.2417 13.9976C93.811 14.5762 94.1143 15.3462 94.1517 16.3076C94.1703 16.5129 94.1797 16.7136 94.1797 16.9096C94.1797 17.1056 94.1703 17.3062 94.1517 17.5116C94.1143 18.4729 93.8157 19.2429 93.2557 19.8216C92.705 20.4002 91.9163 20.6896 90.8897 20.6896ZM90.8897 19.6396C91.487 19.6396 91.9583 19.4529 92.3037 19.0796C92.6583 18.6969 92.8497 18.1509 92.8777 17.4416C92.887 17.3482 92.8917 17.1709 92.8917 16.9096C92.8917 16.6482 92.887 16.4709 92.8777 16.3776C92.8497 15.6682 92.6583 15.1269 92.3037 14.7536C91.9583 14.3709 91.487 14.1796 90.8897 14.1796C90.2923 14.1796 89.8163 14.3709 89.4617 14.7536C89.1163 15.1269 88.9297 15.6682 88.9017 16.3776L88.8877 16.9096L88.9017 17.4416C88.9297 18.1509 89.1163 18.6969 89.4617 19.0796C89.8163 19.4529 90.2923 19.6396 90.8897 19.6396ZM96.2694 20.5496C96.1761 20.5496 96.0967 20.5216 96.0314 20.4656C95.9754 20.4002 95.9474 20.3209 95.9474 20.2276V13.5916C95.9474 13.4982 95.9754 13.4236 96.0314 13.3676C96.0967 13.3022 96.1761 13.2696 96.2694 13.2696H96.8714C96.9741 13.2696 97.0534 13.2976 97.1094 13.3536C97.1654 13.4096 97.1934 13.4889 97.1934 13.5916V14.2076C97.4734 13.8622 97.7954 13.5962 98.1594 13.4096C98.5327 13.2229 98.9947 13.1296 99.5454 13.1296C100.441 13.1296 101.137 13.4189 101.631 13.9976C102.126 14.5669 102.373 15.3229 102.373 16.2656V20.2276C102.373 20.3209 102.341 20.4002 102.275 20.4656C102.219 20.5216 102.145 20.5496 102.051 20.5496H101.407C101.314 20.5496 101.235 20.5216 101.169 20.4656C101.113 20.4002 101.085 20.3209 101.085 20.2276V16.3496C101.085 15.6776 100.922 15.1549 100.595 14.7816C100.269 14.4082 99.8021 14.2216 99.1954 14.2216C98.5981 14.2216 98.1221 14.4129 97.7674 14.7956C97.4127 15.1689 97.2354 15.6869 97.2354 16.3496V20.2276C97.2354 20.3209 97.2027 20.4002 97.1374 20.4656C97.0814 20.5216 97.0067 20.5496 96.9134 20.5496H96.2694ZM106.969 20.5496C106.894 20.5496 106.829 20.5216 106.773 20.4656C106.717 20.4096 106.689 20.3442 106.689 20.2696L106.717 20.1156L110.189 11.0576C110.264 10.8522 110.413 10.7496 110.637 10.7496H111.533C111.757 10.7496 111.906 10.8522 111.981 11.0576L115.453 20.1156L115.481 20.2696C115.481 20.3442 115.448 20.4096 115.383 20.4656C115.327 20.5216 115.262 20.5496 115.187 20.5496H114.529C114.436 20.5496 114.356 20.5262 114.291 20.4796C114.235 20.4236 114.198 20.3676 114.179 20.3116L113.395 18.2956H108.761L107.991 20.3116C107.916 20.4702 107.8 20.5496 107.641 20.5496H106.969ZM109.167 17.1336H113.003L111.085 12.1076L109.167 17.1336ZM117.147 20.5496C117.053 20.5496 116.974 20.5216 116.909 20.4656C116.853 20.4002 116.825 20.3209 116.825 20.2276V10.9316C116.825 10.8289 116.853 10.7496 116.909 10.6936C116.974 10.6376 117.053 10.6096 117.147 10.6096H117.763C117.856 10.6096 117.931 10.6422 117.987 10.7076C118.052 10.7636 118.085 10.8382 118.085 10.9316V20.2276C118.085 20.3209 118.052 20.4002 117.987 20.4656C117.931 20.5216 117.856 20.5496 117.763 20.5496H117.147ZM120.524 20.5496C120.43 20.5496 120.351 20.5216 120.286 20.4656C120.23 20.4002 120.202 20.3209 120.202 20.2276V10.9316C120.202 10.8289 120.23 10.7496 120.286 10.6936C120.351 10.6376 120.43 10.6096 120.524 10.6096H121.14C121.233 10.6096 121.308 10.6422 121.364 10.7076C121.429 10.7636 121.462 10.8382 121.462 10.9316V20.2276C121.462 20.3209 121.429 20.4002 121.364 20.4656C121.308 20.5216 121.233 20.5496 121.14 20.5496H120.524ZM127.5 20.5496C127.407 20.5496 127.332 20.5216 127.276 20.4656C127.22 20.4002 127.192 20.3209 127.192 20.2276V11.0856C127.192 10.9829 127.22 10.9036 127.276 10.8476C127.332 10.7822 127.407 10.7496 127.5 10.7496H130.664C132.073 10.7496 133.091 11.0669 133.716 11.7016C134.341 12.3269 134.663 13.2742 134.682 14.5436C134.691 14.8142 134.696 15.1782 134.696 15.6356C134.696 16.0929 134.691 16.4616 134.682 16.7416C134.663 17.6282 134.519 18.3516 134.248 18.9116C133.987 19.4622 133.571 19.8729 133.002 20.1436C132.433 20.4142 131.677 20.5496 130.734 20.5496H127.5ZM130.664 19.3876C131.317 19.3876 131.835 19.2989 132.218 19.1216C132.61 18.9349 132.89 18.6502 133.058 18.2676C133.235 17.8756 133.333 17.3482 133.352 16.6856C133.371 16.1256 133.38 15.7756 133.38 15.6356C133.38 15.4862 133.371 15.1409 133.352 14.5996C133.333 13.6662 133.109 12.9849 132.68 12.5556C132.26 12.1169 131.565 11.8976 130.594 11.8976H128.508V19.3876H130.664ZM139.533 20.6896C138.581 20.6896 137.82 20.3956 137.251 19.8076C136.681 19.2102 136.369 18.3982 136.313 17.3716L136.299 16.8956L136.313 16.4336C136.369 15.4256 136.681 14.6229 137.251 14.0256C137.82 13.4282 138.581 13.1296 139.533 13.1296C140.559 13.1296 141.353 13.4562 141.913 14.1096C142.482 14.7629 142.767 15.6496 142.767 16.7696V17.0216C142.767 17.1149 142.734 17.1942 142.669 17.2596C142.613 17.3156 142.538 17.3436 142.445 17.3436H137.587V17.4696C137.615 18.0762 137.801 18.5942 138.147 19.0236C138.492 19.4529 138.949 19.6676 139.519 19.6676C139.957 19.6676 140.312 19.5836 140.583 19.4156C140.863 19.2382 141.073 19.0562 141.213 18.8696C141.297 18.7576 141.362 18.6922 141.409 18.6736C141.455 18.6456 141.535 18.6316 141.647 18.6316H142.263C142.347 18.6316 142.417 18.6549 142.473 18.7016C142.538 18.7482 142.571 18.8089 142.571 18.8836C142.571 19.0889 142.445 19.3362 142.193 19.6256C141.941 19.9149 141.581 20.1669 141.115 20.3816C140.657 20.5869 140.13 20.6896 139.533 20.6896ZM141.493 16.3916V16.3496C141.493 15.6962 141.315 15.1642 140.961 14.7536C140.606 14.3429 140.13 14.1376 139.533 14.1376C138.926 14.1376 138.45 14.3429 138.105 14.7536C137.759 15.1642 137.587 15.6962 137.587 16.3496V16.3916H141.493ZM146.757 20.5496C146.514 20.5496 146.341 20.4329 146.239 20.1996L143.635 13.7036C143.625 13.6756 143.621 13.6289 143.621 13.5636C143.621 13.4796 143.649 13.4096 143.705 13.3536C143.761 13.2976 143.826 13.2696 143.901 13.2696H144.545C144.694 13.2696 144.806 13.3442 144.881 13.4936L147.037 19.0796L149.193 13.4936C149.211 13.4376 149.249 13.3862 149.305 13.3396C149.37 13.2929 149.445 13.2696 149.529 13.2696H150.173C150.247 13.2696 150.313 13.2976 150.369 13.3536C150.425 13.4096 150.453 13.4796 150.453 13.5636L150.425 13.7036L147.835 20.1996C147.732 20.4329 147.559 20.5496 147.317 20.5496H146.757ZM152.157 11.8976C152.064 11.8976 151.985 11.8696 151.919 11.8136C151.863 11.7482 151.835 11.6689 151.835 11.5756V10.8476C151.835 10.7542 151.863 10.6749 151.919 10.6096C151.985 10.5442 152.064 10.5116 152.157 10.5116H152.983C153.077 10.5116 153.156 10.5442 153.221 10.6096C153.287 10.6749 153.319 10.7542 153.319 10.8476V11.5756C153.319 11.6689 153.287 11.7482 153.221 11.8136C153.156 11.8696 153.077 11.8976 152.983 11.8976H152.157ZM152.269 20.5496C152.176 20.5496 152.097 20.5216 152.031 20.4656C151.975 20.4002 151.947 20.3209 151.947 20.2276V13.5916C151.947 13.4982 151.975 13.4236 152.031 13.3676C152.097 13.3022 152.176 13.2696 152.269 13.2696H152.885C152.979 13.2696 153.053 13.3022 153.109 13.3676C153.175 13.4236 153.207 13.4982 153.207 13.5916V20.2276C153.207 20.3209 153.175 20.4002 153.109 20.4656C153.053 20.5216 152.979 20.5496 152.885 20.5496H152.269ZM158.223 20.6896C157.224 20.6896 156.445 20.4096 155.885 19.8496C155.325 19.2802 155.031 18.4869 155.003 17.4696L154.989 16.9096L155.003 16.3496C155.031 15.3322 155.325 14.5436 155.885 13.9836C156.445 13.4142 157.224 13.1296 158.223 13.1296C158.895 13.1296 159.459 13.2509 159.917 13.4936C160.383 13.7269 160.729 14.0209 160.953 14.3756C161.186 14.7302 161.312 15.0849 161.331 15.4396C161.34 15.5236 161.307 15.5982 161.233 15.6636C161.167 15.7289 161.093 15.7616 161.009 15.7616H160.393C160.299 15.7616 160.229 15.7429 160.183 15.7056C160.136 15.6589 160.089 15.5796 160.043 15.4676C159.875 15.0102 159.641 14.6882 159.343 14.5016C159.053 14.3056 158.685 14.2076 158.237 14.2076C157.649 14.2076 157.182 14.3896 156.837 14.7536C156.491 15.1176 156.305 15.6729 156.277 16.4196L156.263 16.9096L156.277 17.3996C156.305 18.1462 156.491 18.7016 156.837 19.0656C157.182 19.4296 157.649 19.6116 158.237 19.6116C158.694 19.6116 159.067 19.5182 159.357 19.3316C159.646 19.1356 159.875 18.8089 160.043 18.3516C160.089 18.2396 160.136 18.1649 160.183 18.1276C160.229 18.0809 160.299 18.0576 160.393 18.0576H161.009C161.093 18.0576 161.167 18.0902 161.233 18.1556C161.307 18.2209 161.34 18.2956 161.331 18.3796C161.312 18.7249 161.186 19.0749 160.953 19.4296C160.729 19.7842 160.383 20.0829 159.917 20.3256C159.459 20.5682 158.895 20.6896 158.223 20.6896ZM165.892 20.6896C164.94 20.6896 164.179 20.3956 163.61 19.8076C163.041 19.2102 162.728 18.3982 162.672 17.3716L162.658 16.8956L162.672 16.4336C162.728 15.4256 163.041 14.6229 163.61 14.0256C164.179 13.4282 164.94 13.1296 165.892 13.1296C166.919 13.1296 167.712 13.4562 168.272 14.1096C168.841 14.7629 169.126 15.6496 169.126 16.7696V17.0216C169.126 17.1149 169.093 17.1942 169.028 17.2596C168.972 17.3156 168.897 17.3436 168.804 17.3436H163.946V17.4696C163.974 18.0762 164.161 18.5942 164.506 19.0236C164.851 19.4529 165.309 19.6676 165.878 19.6676C166.317 19.6676 166.671 19.5836 166.942 19.4156C167.222 19.2382 167.432 19.0562 167.572 18.8696C167.656 18.7576 167.721 18.6922 167.768 18.6736C167.815 18.6456 167.894 18.6316 168.006 18.6316H168.622C168.706 18.6316 168.776 18.6549 168.832 18.7016C168.897 18.7482 168.93 18.8089 168.93 18.8836C168.93 19.0889 168.804 19.3362 168.552 19.6256C168.3 19.9149 167.941 20.1669 167.474 20.3816C167.017 20.5869 166.489 20.6896 165.892 20.6896ZM167.852 16.3916V16.3496C167.852 15.6962 167.675 15.1642 167.32 14.7536C166.965 14.3429 166.489 14.1376 165.892 14.1376C165.285 14.1376 164.809 14.3429 164.464 14.7536C164.119 15.1642 163.946 15.6962 163.946 16.3496V16.3916H167.852ZM173.32 20.6896C172.676 20.6896 172.13 20.5869 171.682 20.3816C171.244 20.1669 170.917 19.9242 170.702 19.6536C170.488 19.3829 170.38 19.1589 170.38 18.9816C170.38 18.8882 170.413 18.8182 170.478 18.7716C170.544 18.7156 170.614 18.6876 170.688 18.6876H171.276C171.332 18.6876 171.374 18.6969 171.402 18.7156C171.44 18.7342 171.486 18.7762 171.542 18.8416C171.757 19.1029 171.995 19.3082 172.256 19.4576C172.527 19.6069 172.886 19.6816 173.334 19.6816C173.838 19.6816 174.24 19.5882 174.538 19.4016C174.846 19.2149 175 18.9442 175 18.5896C175 18.3562 174.935 18.1696 174.804 18.0296C174.674 17.8896 174.454 17.7636 174.146 17.6516C173.848 17.5396 173.4 17.4182 172.802 17.2876C171.99 17.1102 171.416 16.8536 171.08 16.5176C170.744 16.1816 170.576 15.7476 170.576 15.2156C170.576 14.8702 170.679 14.5389 170.884 14.2216C171.09 13.8949 171.393 13.6336 171.794 13.4376C172.205 13.2322 172.69 13.1296 173.25 13.1296C173.838 13.1296 174.338 13.2276 174.748 13.4236C175.168 13.6196 175.481 13.8482 175.686 14.1096C175.901 14.3709 176.008 14.5902 176.008 14.7676C176.008 14.8516 175.976 14.9216 175.91 14.9776C175.854 15.0336 175.784 15.0616 175.7 15.0616H175.168C175.038 15.0616 174.944 15.0102 174.888 14.9076C174.73 14.7302 174.594 14.5949 174.482 14.5016C174.38 14.3989 174.226 14.3149 174.02 14.2496C173.815 14.1749 173.558 14.1376 173.25 14.1376C172.793 14.1376 172.443 14.2356 172.2 14.4316C171.958 14.6182 171.836 14.8702 171.836 15.1876C171.836 15.3836 171.888 15.5516 171.99 15.6916C172.093 15.8222 172.289 15.9482 172.578 16.0696C172.868 16.1816 173.297 16.2982 173.866 16.4196C174.753 16.6062 175.378 16.8722 175.742 17.2176C176.116 17.5629 176.302 18.0062 176.302 18.5476C176.302 18.9489 176.186 19.3129 175.952 19.6396C175.728 19.9662 175.388 20.2229 174.93 20.4096C174.482 20.5962 173.946 20.6896 173.32 20.6896Z" fill="#4F5665"/>
</svg>
