<svg width="161" height="31" viewBox="0 0 161 31" fill="none" xmlns="http://www.w3.org/2000/svg">
<path d="M49.0022 20.6896C47.7609 20.6896 46.8135 20.3536 46.1602 19.6816C45.5162 19.0002 45.1709 18.0716 45.1242 16.8956C45.1149 16.6436 45.1102 16.2329 45.1102 15.6636C45.1102 15.0849 45.1149 14.6649 45.1242 14.4036C45.1709 13.2276 45.5162 12.3036 46.1602 11.6316C46.8135 10.9502 47.7609 10.6096 49.0022 10.6096C49.8329 10.6096 50.5375 10.7589 51.1162 11.0576C51.6949 11.3469 52.1289 11.7296 52.4182 12.2056C52.7169 12.6816 52.8802 13.1902 52.9082 13.7316C52.9082 13.8156 52.8755 13.8856 52.8102 13.9416C52.7542 13.9882 52.6842 14.0116 52.6002 14.0116H51.9002C51.8069 14.0116 51.7322 13.9882 51.6762 13.9416C51.6202 13.8949 51.5782 13.8156 51.5502 13.7036C51.3915 12.9849 51.1022 12.4809 50.6822 12.1916C50.2715 11.9022 49.7115 11.7576 49.0022 11.7576C47.3782 11.7576 46.5335 12.6629 46.4682 14.4736C46.4589 14.7256 46.4542 15.1129 46.4542 15.6356C46.4542 16.1582 46.4589 16.5549 46.4682 16.8256C46.5335 18.6269 47.3782 19.5276 49.0022 19.5276C49.7022 19.5276 50.2622 19.3829 50.6822 19.0936C51.1022 18.8042 51.3915 18.3049 51.5502 17.5956C51.5782 17.4836 51.6202 17.4042 51.6762 17.3576C51.7322 17.3109 51.8069 17.2876 51.9002 17.2876H52.6002C52.6842 17.2876 52.7542 17.3156 52.8102 17.3716C52.8755 17.4182 52.9082 17.4836 52.9082 17.5676C52.8802 18.1089 52.7169 18.6176 52.4182 19.0936C52.1289 19.5696 51.6949 19.9569 51.1162 20.2556C50.5375 20.5449 49.8329 20.6896 49.0022 20.6896ZM57.5847 20.6896C56.5581 20.6896 55.7647 20.4002 55.2047 19.8216C54.6541 19.2429 54.3601 18.4729 54.3227 17.5116L54.3087 16.9096L54.3227 16.3076C54.3601 15.3462 54.6587 14.5762 55.2187 13.9976C55.7881 13.4189 56.5767 13.1296 57.5847 13.1296C58.5927 13.1296 59.3767 13.4189 59.9367 13.9976C60.5061 14.5762 60.8094 15.3462 60.8468 16.3076C60.8654 16.5129 60.8747 16.7136 60.8747 16.9096C60.8747 17.1056 60.8654 17.3062 60.8468 17.5116C60.8094 18.4729 60.5107 19.2429 59.9507 19.8216C59.4001 20.4002 58.6114 20.6896 57.5847 20.6896ZM57.5847 19.6396C58.1821 19.6396 58.6534 19.4529 58.9987 19.0796C59.3534 18.6969 59.5447 18.1509 59.5727 17.4416C59.5821 17.3482 59.5867 17.1709 59.5867 16.9096C59.5867 16.6482 59.5821 16.4709 59.5727 16.3776C59.5447 15.6682 59.3534 15.1269 58.9987 14.7536C58.6534 14.3709 58.1821 14.1796 57.5847 14.1796C56.9874 14.1796 56.5114 14.3709 56.1567 14.7536C55.8114 15.1269 55.6247 15.6682 55.5967 16.3776L55.5827 16.9096L55.5967 17.4416C55.6247 18.1509 55.8114 18.6969 56.1567 19.0796C56.5114 19.4529 56.9874 19.6396 57.5847 19.6396ZM62.9645 20.5496C62.8711 20.5496 62.7918 20.5216 62.7265 20.4656C62.6705 20.4002 62.6425 20.3209 62.6425 20.2276V13.5916C62.6425 13.4982 62.6705 13.4236 62.7265 13.3676C62.7918 13.3022 62.8711 13.2696 62.9645 13.2696H63.5665C63.6691 13.2696 63.7485 13.2976 63.8045 13.3536C63.8605 13.4096 63.8885 13.4889 63.8885 13.5916V14.2076C64.1685 13.8622 64.4905 13.5962 64.8545 13.4096C65.2278 13.2229 65.6898 13.1296 66.2405 13.1296C67.1365 13.1296 67.8318 13.4189 68.3265 13.9976C68.8211 14.5669 69.0685 15.3229 69.0685 16.2656V20.2276C69.0685 20.3209 69.0358 20.4002 68.9705 20.4656C68.9145 20.5216 68.8398 20.5496 68.7465 20.5496H68.1025C68.0091 20.5496 67.9298 20.5216 67.8645 20.4656C67.8085 20.4002 67.7805 20.3209 67.7805 20.2276V16.3496C67.7805 15.6776 67.6171 15.1549 67.2905 14.7816C66.9638 14.4082 66.4971 14.2216 65.8905 14.2216C65.2931 14.2216 64.8171 14.4129 64.4625 14.7956C64.1078 15.1689 63.9305 15.6869 63.9305 16.3496V20.2276C63.9305 20.3209 63.8978 20.4002 63.8325 20.4656C63.7765 20.5216 63.7018 20.5496 63.6085 20.5496H62.9645ZM71.4137 20.5496C71.3204 20.5496 71.241 20.5216 71.1757 20.4656C71.1197 20.4002 71.0917 20.3209 71.0917 20.2276V13.5916C71.0917 13.4982 71.1197 13.4236 71.1757 13.3676C71.241 13.3022 71.3204 13.2696 71.4137 13.2696H72.0157C72.1184 13.2696 72.1977 13.2976 72.2537 13.3536C72.3097 13.4096 72.3377 13.4889 72.3377 13.5916V14.2076C72.6177 13.8622 72.9397 13.5962 73.3037 13.4096C73.677 13.2229 74.139 13.1296 74.6897 13.1296C75.5857 13.1296 76.281 13.4189 76.7757 13.9976C77.2704 14.5669 77.5177 15.3229 77.5177 16.2656V20.2276C77.5177 20.3209 77.485 20.4002 77.4197 20.4656C77.3637 20.5216 77.289 20.5496 77.1957 20.5496H76.5517C76.4584 20.5496 76.379 20.5216 76.3137 20.4656C76.2577 20.4002 76.2297 20.3209 76.2297 20.2276V16.3496C76.2297 15.6776 76.0664 15.1549 75.7397 14.7816C75.413 14.4082 74.9464 14.2216 74.3397 14.2216C73.7424 14.2216 73.2664 14.4129 72.9117 14.7956C72.557 15.1689 72.3797 15.6869 72.3797 16.3496V20.2276C72.3797 20.3209 72.347 20.4002 72.2817 20.4656C72.2257 20.5216 72.151 20.5496 72.0577 20.5496H71.4137ZM82.4249 20.6896C81.4729 20.6896 80.7122 20.3956 80.1429 19.8076C79.5736 19.2102 79.2609 18.3982 79.2049 17.3716L79.1909 16.8956L79.2049 16.4336C79.2609 15.4256 79.5736 14.6229 80.1429 14.0256C80.7122 13.4282 81.4729 13.1296 82.4249 13.1296C83.4516 13.1296 84.2449 13.4562 84.8049 14.1096C85.3742 14.7629 85.6589 15.6496 85.6589 16.7696V17.0216C85.6589 17.1149 85.6262 17.1942 85.5609 17.2596C85.5049 17.3156 85.4302 17.3436 85.3369 17.3436H80.4789V17.4696C80.5069 18.0762 80.6936 18.5942 81.0389 19.0236C81.3842 19.4529 81.8416 19.6676 82.4109 19.6676C82.8496 19.6676 83.2042 19.5836 83.4749 19.4156C83.7549 19.2382 83.9649 19.0562 84.1049 18.8696C84.1889 18.7576 84.2542 18.6922 84.3009 18.6736C84.3476 18.6456 84.4269 18.6316 84.5389 18.6316H85.1549C85.2389 18.6316 85.3089 18.6549 85.3649 18.7016C85.4302 18.7482 85.4629 18.8089 85.4629 18.8836C85.4629 19.0889 85.3369 19.3362 85.0849 19.6256C84.8329 19.9149 84.4736 20.1669 84.0069 20.3816C83.5496 20.5869 83.0222 20.6896 82.4249 20.6896ZM84.3849 16.3916V16.3496C84.3849 15.6962 84.2076 15.1642 83.8529 14.7536C83.4982 14.3429 83.0222 14.1376 82.4249 14.1376C81.8182 14.1376 81.3422 14.3429 80.9969 14.7536C80.6516 15.1642 80.4789 15.6962 80.4789 16.3496V16.3916H84.3849ZM90.2732 20.6896C89.2746 20.6896 88.4952 20.4096 87.9352 19.8496C87.3752 19.2802 87.0812 18.4869 87.0532 17.4696L87.0392 16.9096L87.0532 16.3496C87.0812 15.3322 87.3752 14.5436 87.9352 13.9836C88.4952 13.4142 89.2746 13.1296 90.2732 13.1296C90.9452 13.1296 91.5099 13.2509 91.9672 13.4936C92.4339 13.7269 92.7792 14.0209 93.0032 14.3756C93.2366 14.7302 93.3626 15.0849 93.3812 15.4396C93.3906 15.5236 93.3579 15.5982 93.2832 15.6636C93.2179 15.7289 93.1432 15.7616 93.0592 15.7616H92.4432C92.3499 15.7616 92.2799 15.7429 92.2332 15.7056C92.1866 15.6589 92.1399 15.5796 92.0932 15.4676C91.9252 15.0102 91.6919 14.6882 91.3932 14.5016C91.1039 14.3056 90.7352 14.2076 90.2872 14.2076C89.6992 14.2076 89.2326 14.3896 88.8872 14.7536C88.5419 15.1176 88.3552 15.6729 88.3272 16.4196L88.3132 16.9096L88.3272 17.3996C88.3552 18.1462 88.5419 18.7016 88.8872 19.0656C89.2326 19.4296 89.6992 19.6116 90.2872 19.6116C90.7446 19.6116 91.1179 19.5182 91.4072 19.3316C91.6966 19.1356 91.9252 18.8089 92.0932 18.3516C92.1399 18.2396 92.1866 18.1649 92.2332 18.1276C92.2799 18.0809 92.3499 18.0576 92.4432 18.0576H93.0592C93.1432 18.0576 93.2179 18.0902 93.2832 18.1556C93.3579 18.2209 93.3906 18.2956 93.3812 18.3796C93.3626 18.7249 93.2366 19.0749 93.0032 19.4296C92.7792 19.7842 92.4339 20.0829 91.9672 20.3256C91.5099 20.5682 90.9452 20.6896 90.2732 20.6896ZM97.8585 20.5496C96.4118 20.5496 95.6885 19.7329 95.6885 18.0996V14.3476H94.5825C94.4892 14.3476 94.4145 14.3196 94.3585 14.2636C94.3025 14.2076 94.2745 14.1329 94.2745 14.0396V13.5916C94.2745 13.4982 94.3025 13.4236 94.3585 13.3676C94.4145 13.3022 94.4892 13.2696 94.5825 13.2696H95.6885V10.9316C95.6885 10.8382 95.7165 10.7636 95.7725 10.7076C95.8285 10.6422 95.9032 10.6096 95.9965 10.6096H96.6125C96.7058 10.6096 96.7805 10.6422 96.8365 10.7076C96.9018 10.7636 96.9345 10.8382 96.9345 10.9316V13.2696H98.6705C98.7638 13.2696 98.8385 13.3022 98.8945 13.3676C98.9598 13.4236 98.9925 13.4982 98.9925 13.5916V14.0396C98.9925 14.1329 98.9598 14.2076 98.8945 14.2636C98.8385 14.3196 98.7638 14.3476 98.6705 14.3476H96.9345V18.0016C96.9345 18.4776 97.0092 18.8369 97.1585 19.0796C97.3172 19.3222 97.5832 19.4436 97.9565 19.4436H98.8105C98.9038 19.4436 98.9785 19.4762 99.0345 19.5416C99.0905 19.5976 99.1185 19.6722 99.1185 19.7656V20.2276C99.1185 20.3209 99.0905 20.4002 99.0345 20.4656C98.9785 20.5216 98.9038 20.5496 98.8105 20.5496H97.8585ZM103.059 20.5496C102.984 20.5496 102.919 20.5216 102.863 20.4656C102.807 20.4096 102.779 20.3442 102.779 20.2696L102.807 20.1156L106.279 11.0576C106.353 10.8522 106.503 10.7496 106.727 10.7496H107.623C107.847 10.7496 107.996 10.8522 108.071 11.0576L111.543 20.1156L111.571 20.2696C111.571 20.3442 111.538 20.4096 111.473 20.4656C111.417 20.5216 111.351 20.5496 111.277 20.5496H110.619C110.525 20.5496 110.446 20.5262 110.381 20.4796C110.325 20.4236 110.287 20.3676 110.269 20.3116L109.485 18.2956H104.851L104.081 20.3116C104.006 20.4702 103.889 20.5496 103.731 20.5496H103.059ZM105.257 17.1336H109.093L107.175 12.1076L105.257 17.1336ZM113.222 20.5496C113.129 20.5496 113.05 20.5216 112.984 20.4656C112.928 20.4002 112.9 20.3209 112.9 20.2276V13.5916C112.9 13.4982 112.928 13.4236 112.984 13.3676C113.05 13.3022 113.129 13.2696 113.222 13.2696H113.824C113.927 13.2696 114.006 13.2976 114.062 13.3536C114.118 13.4096 114.146 13.4889 114.146 13.5916V14.2076C114.426 13.8622 114.748 13.5962 115.112 13.4096C115.486 13.2229 115.948 13.1296 116.498 13.1296C117.394 13.1296 118.09 13.4189 118.584 13.9976C119.079 14.5669 119.326 15.3229 119.326 16.2656V20.2276C119.326 20.3209 119.294 20.4002 119.228 20.4656C119.172 20.5216 119.098 20.5496 119.004 20.5496H118.36C118.267 20.5496 118.188 20.5216 118.122 20.4656C118.066 20.4002 118.038 20.3209 118.038 20.2276V16.3496C118.038 15.6776 117.875 15.1549 117.548 14.7816C117.222 14.4082 116.755 14.2216 116.148 14.2216C115.551 14.2216 115.075 14.4129 114.72 14.7956C114.366 15.1689 114.188 15.6869 114.188 16.3496V20.2276C114.188 20.3209 114.156 20.4002 114.09 20.4656C114.034 20.5216 113.96 20.5496 113.866 20.5496H113.222ZM122.405 23.2096C122.321 23.2096 122.251 23.1816 122.195 23.1256C122.139 23.0696 122.111 23.0042 122.111 22.9296C122.111 22.9016 122.134 22.8176 122.181 22.6776L123.273 20.1156L120.599 13.8016C120.543 13.6896 120.515 13.6102 120.515 13.5636C120.524 13.4796 120.557 13.4096 120.613 13.3536C120.669 13.2976 120.734 13.2696 120.809 13.2696H121.453C121.602 13.2696 121.714 13.3442 121.789 13.4936L123.945 18.6456L126.157 13.4936C126.231 13.3442 126.343 13.2696 126.493 13.2696H127.123C127.197 13.2696 127.263 13.2976 127.319 13.3536C127.375 13.4096 127.403 13.4749 127.403 13.5496C127.403 13.6149 127.379 13.6989 127.333 13.8016L123.371 22.9856C123.324 23.0602 123.273 23.1162 123.217 23.1536C123.17 23.1909 123.105 23.2096 123.021 23.2096H122.405ZM130.746 20.5496C130.616 20.5496 130.518 20.5216 130.452 20.4656C130.387 20.4096 130.336 20.3209 130.298 20.1996L128.31 13.7036L128.282 13.5636C128.282 13.4796 128.31 13.4096 128.366 13.3536C128.422 13.2976 128.492 13.2696 128.576 13.2696H129.15C129.244 13.2696 129.318 13.2976 129.374 13.3536C129.44 13.4002 129.477 13.4469 129.486 13.4936L131.068 18.8416L132.748 13.5636C132.767 13.4889 132.809 13.4236 132.874 13.3676C132.94 13.3022 133.028 13.2696 133.14 13.2696H133.588C133.7 13.2696 133.789 13.3022 133.854 13.3676C133.92 13.4236 133.962 13.4889 133.98 13.5636L135.66 18.8416L137.242 13.4936C137.252 13.4469 137.284 13.4002 137.34 13.3536C137.406 13.2976 137.485 13.2696 137.578 13.2696H138.152C138.236 13.2696 138.306 13.2976 138.362 13.3536C138.418 13.4096 138.446 13.4796 138.446 13.5636L138.418 13.7036L136.43 20.1996C136.393 20.3209 136.342 20.4096 136.276 20.4656C136.211 20.5216 136.113 20.5496 135.982 20.5496H135.478C135.236 20.5496 135.077 20.4329 135.002 20.1996L133.364 15.1316L131.726 20.1996C131.652 20.4329 131.493 20.5496 131.25 20.5496H130.746ZM141.823 20.6896C141.365 20.6896 140.941 20.5962 140.549 20.4096C140.166 20.2229 139.858 19.9709 139.625 19.6536C139.401 19.3269 139.289 18.9676 139.289 18.5756C139.289 17.9596 139.541 17.4556 140.045 17.0636C140.549 16.6716 141.235 16.4102 142.103 16.2796L144.203 15.9856V15.5796C144.203 14.6182 143.647 14.1376 142.537 14.1376C142.107 14.1376 141.762 14.2262 141.501 14.4036C141.239 14.5716 141.048 14.7722 140.927 15.0056C140.889 15.0989 140.847 15.1642 140.801 15.2016C140.763 15.2296 140.707 15.2436 140.633 15.2436H140.087C140.003 15.2436 139.928 15.2156 139.863 15.1596C139.807 15.0942 139.779 15.0196 139.779 14.9356C139.779 14.7209 139.877 14.4736 140.073 14.1936C140.278 13.9042 140.591 13.6569 141.011 13.4516C141.431 13.2369 141.944 13.1296 142.551 13.1296C143.596 13.1296 144.343 13.3722 144.791 13.8576C145.248 14.3429 145.477 14.9496 145.477 15.6776V20.2276C145.477 20.3209 145.444 20.4002 145.379 20.4656C145.323 20.5216 145.248 20.5496 145.155 20.5496H144.539C144.445 20.5496 144.371 20.5216 144.315 20.4656C144.259 20.4002 144.231 20.3209 144.231 20.2276V19.6116C144.025 19.9196 143.727 20.1762 143.335 20.3816C142.943 20.5869 142.439 20.6896 141.823 20.6896ZM142.103 19.6676C142.719 19.6676 143.223 19.4669 143.615 19.0656C144.007 18.6642 144.203 18.0809 144.203 17.3156V16.9236L142.565 17.1616C141.893 17.2549 141.384 17.4136 141.039 17.6376C140.693 17.8616 140.521 18.1416 140.521 18.4776C140.521 18.8602 140.675 19.1542 140.983 19.3596C141.3 19.5649 141.673 19.6676 142.103 19.6676ZM147.826 20.5496C147.732 20.5496 147.653 20.5216 147.588 20.4656C147.532 20.4002 147.504 20.3209 147.504 20.2276V13.6056C147.504 13.5122 147.532 13.4329 147.588 13.3676C147.653 13.3022 147.732 13.2696 147.826 13.2696H148.414C148.516 13.2696 148.596 13.3022 148.652 13.3676C148.717 13.4236 148.75 13.5029 148.75 13.6056V14.2216C149.132 13.5869 149.781 13.2696 150.696 13.2696H151.242C151.344 13.2696 151.424 13.2976 151.48 13.3536C151.536 13.4096 151.564 13.4889 151.564 13.5916V14.1096C151.564 14.2029 151.536 14.2822 151.48 14.3476C151.424 14.4036 151.344 14.4316 151.242 14.4316H150.444C149.93 14.4316 149.524 14.5809 149.226 14.8796C148.936 15.1782 148.792 15.5842 148.792 16.0976V20.2276C148.792 20.3209 148.759 20.4002 148.694 20.4656C148.628 20.5216 148.549 20.5496 148.456 20.5496H147.826ZM155.515 20.6896C154.563 20.6896 153.802 20.3956 153.233 19.8076C152.663 19.2102 152.351 18.3982 152.295 17.3716L152.281 16.8956L152.295 16.4336C152.351 15.4256 152.663 14.6229 153.233 14.0256C153.802 13.4282 154.563 13.1296 155.515 13.1296C156.541 13.1296 157.335 13.4562 157.895 14.1096C158.464 14.7629 158.749 15.6496 158.749 16.7696V17.0216C158.749 17.1149 158.716 17.1942 158.651 17.2596C158.595 17.3156 158.52 17.3436 158.427 17.3436H153.569V17.4696C153.597 18.0762 153.783 18.5942 154.129 19.0236C154.474 19.4529 154.931 19.6676 155.501 19.6676C155.939 19.6676 156.294 19.5836 156.565 19.4156C156.845 19.2382 157.055 19.0562 157.195 18.8696C157.279 18.7576 157.344 18.6922 157.391 18.6736C157.437 18.6456 157.517 18.6316 157.629 18.6316H158.245C158.329 18.6316 158.399 18.6549 158.455 18.7016C158.52 18.7482 158.553 18.8089 158.553 18.8836C158.553 19.0889 158.427 19.3362 158.175 19.6256C157.923 19.9149 157.563 20.1669 157.097 20.3816C156.639 20.5869 156.112 20.6896 155.515 20.6896ZM157.475 16.3916V16.3496C157.475 15.6962 157.297 15.1642 156.943 14.7536C156.588 14.3429 156.112 14.1376 155.515 14.1376C154.908 14.1376 154.432 14.3429 154.087 14.7536C153.741 15.1642 153.569 15.6962 153.569 16.3496V16.3916H157.475Z" fill="#4F5665"/>
<path d="M10.7562 20.2796C10.6249 20.2798 10.4949 20.2542 10.3736 20.2041C10.2523 20.154 10.142 20.0804 10.0492 19.9876L5.80721 15.7446C5.71163 15.6524 5.63537 15.5421 5.58288 15.4201C5.53039 15.2982 5.50271 15.167 5.50146 15.0342C5.50022 14.9014 5.52543 14.7697 5.57562 14.6468C5.62581 14.5238 5.69999 14.4121 5.79381 14.3182C5.88764 14.2242 5.99924 14.1499 6.1221 14.0995C6.24495 14.0492 6.37662 14.0238 6.50939 14.0248C6.64217 14.0259 6.77341 14.0534 6.89545 14.1057C7.01749 14.158 7.12789 14.2341 7.22021 14.3296L10.7552 17.8646L17.1202 11.5016C17.3077 11.3139 17.5621 11.2085 17.8274 11.2084C18.0926 11.2083 18.3471 11.3136 18.5347 11.5011C18.7223 11.6886 18.8278 11.9429 18.8279 12.2082C18.828 12.4735 18.7227 12.7279 18.5352 12.9156L11.4632 19.9876C11.3704 20.0804 11.2601 20.154 11.1388 20.2041C11.0175 20.2542 10.8875 20.2798 10.7562 20.2796Z" fill="#2FAB73"/>
</svg>
