<svg width="161" height="31" viewBox="0 0 161 31" fill="none" xmlns="http://www.w3.org/2000/svg">
<path d="M49.0443 20.6896C47.8309 20.6896 46.8883 20.3536 46.2163 19.6816C45.5443 19.0096 45.1849 18.0996 45.1383 16.9516C45.1289 16.6716 45.1243 16.2329 45.1243 15.6356C45.1243 15.0289 45.1289 14.5902 45.1383 14.3196C45.1756 13.1809 45.5303 12.2802 46.2023 11.6176C46.8836 10.9456 47.8309 10.6096 49.0443 10.6096C49.8656 10.6096 50.5609 10.7589 51.1303 11.0576C51.6996 11.3562 52.1289 11.7156 52.4183 12.1356C52.7076 12.5462 52.8616 12.9289 52.8803 13.2836V13.3116C52.8803 13.3862 52.8476 13.4516 52.7823 13.5076C52.7263 13.5542 52.6609 13.5776 52.5863 13.5776H51.8023C51.7183 13.5776 51.6529 13.5589 51.6063 13.5216C51.5689 13.4842 51.5316 13.4142 51.4943 13.3116C51.3449 12.8729 51.0696 12.5042 50.6683 12.2056C50.2669 11.9069 49.7256 11.7576 49.0443 11.7576C48.2603 11.7576 47.6443 11.9722 47.1963 12.4016C46.7483 12.8309 46.5103 13.4936 46.4823 14.3896C46.4729 14.6602 46.4683 15.0756 46.4683 15.6356C46.4683 16.1862 46.4729 16.6016 46.4823 16.8816C46.5103 17.7869 46.7483 18.4542 47.1963 18.8836C47.6443 19.3129 48.2603 19.5276 49.0443 19.5276C49.8376 19.5276 50.4723 19.3129 50.9483 18.8836C51.4243 18.4449 51.6623 17.7916 51.6623 16.9236V16.3216H49.5203C49.4269 16.3216 49.3476 16.2889 49.2823 16.2236C49.2263 16.1582 49.1983 16.0789 49.1983 15.9856V15.5656C49.1983 15.4722 49.2263 15.3929 49.2823 15.3276C49.3476 15.2622 49.4269 15.2296 49.5203 15.2296H52.6563C52.7589 15.2296 52.8383 15.2622 52.8943 15.3276C52.9596 15.3836 52.9923 15.4629 52.9923 15.5656V16.8956C52.9923 17.6516 52.8336 18.3189 52.5163 18.8976C52.2083 19.4669 51.7556 19.9102 51.1583 20.2276C50.5609 20.5356 49.8563 20.6896 49.0443 20.6896ZM57.7062 20.6896C56.7542 20.6896 55.9936 20.3956 55.4242 19.8076C54.8549 19.2102 54.5422 18.3982 54.4862 17.3716L54.4722 16.8956L54.4862 16.4336C54.5422 15.4256 54.8549 14.6229 55.4242 14.0256C55.9936 13.4282 56.7542 13.1296 57.7062 13.1296C58.7329 13.1296 59.5262 13.4562 60.0862 14.1096C60.6556 14.7629 60.9402 15.6496 60.9402 16.7696V17.0216C60.9402 17.1149 60.9076 17.1942 60.8422 17.2596C60.7862 17.3156 60.7116 17.3436 60.6182 17.3436H55.7602V17.4696C55.7882 18.0762 55.9749 18.5942 56.3202 19.0236C56.6656 19.4529 57.1229 19.6676 57.6922 19.6676C58.1309 19.6676 58.4856 19.5836 58.7562 19.4156C59.0362 19.2382 59.2462 19.0562 59.3862 18.8696C59.4702 18.7576 59.5356 18.6922 59.5822 18.6736C59.6289 18.6456 59.7082 18.6316 59.8202 18.6316H60.4362C60.5202 18.6316 60.5902 18.6549 60.6462 18.7016C60.7116 18.7482 60.7442 18.8089 60.7442 18.8836C60.7442 19.0889 60.6182 19.3362 60.3662 19.6256C60.1142 19.9149 59.7549 20.1669 59.2882 20.3816C58.8309 20.5869 58.3036 20.6896 57.7062 20.6896ZM59.6662 16.3916V16.3496C59.6662 15.6962 59.4889 15.1642 59.1342 14.7536C58.7796 14.3429 58.3036 14.1376 57.7062 14.1376C57.0996 14.1376 56.6236 14.3429 56.2782 14.7536C55.9329 15.1642 55.7602 15.6962 55.7602 16.3496V16.3916H59.6662ZM65.4015 20.5496C63.9548 20.5496 63.2315 19.7329 63.2315 18.0996V14.3476H62.1255C62.0322 14.3476 61.9575 14.3196 61.9015 14.2636C61.8455 14.2076 61.8175 14.1329 61.8175 14.0396V13.5916C61.8175 13.4982 61.8455 13.4236 61.9015 13.3676C61.9575 13.3022 62.0322 13.2696 62.1255 13.2696H63.2315V10.9316C63.2315 10.8382 63.2595 10.7636 63.3155 10.7076C63.3715 10.6422 63.4462 10.6096 63.5395 10.6096H64.1555C64.2488 10.6096 64.3235 10.6422 64.3795 10.7076C64.4448 10.7636 64.4775 10.8382 64.4775 10.9316V13.2696H66.2135C66.3068 13.2696 66.3815 13.3022 66.4375 13.3676C66.5028 13.4236 66.5355 13.4982 66.5355 13.5916V14.0396C66.5355 14.1329 66.5028 14.2076 66.4375 14.2636C66.3815 14.3196 66.3068 14.3476 66.2135 14.3476H64.4775V18.0016C64.4775 18.4776 64.5522 18.8369 64.7015 19.0796C64.8602 19.3222 65.1262 19.4436 65.4995 19.4436H66.3535C66.4468 19.4436 66.5215 19.4762 66.5775 19.5416C66.6335 19.5976 66.6615 19.6722 66.6615 19.7656V20.2276C66.6615 20.3209 66.6335 20.4002 66.5775 20.4656C66.5215 20.5216 66.4468 20.5496 66.3535 20.5496H65.4015ZM71.9646 20.5496C71.8712 20.5496 71.7966 20.5216 71.7406 20.4656C71.6846 20.4002 71.6566 20.3209 71.6566 20.2276V11.0856C71.6566 10.9829 71.6846 10.9036 71.7406 10.8476C71.7966 10.7822 71.8712 10.7496 71.9646 10.7496H72.5806C72.6739 10.7496 72.7439 10.7682 72.7906 10.8056C72.8372 10.8429 72.8839 10.8896 72.9306 10.9456L77.6206 18.1696V11.0856C77.6206 10.9829 77.6486 10.9036 77.7046 10.8476C77.7699 10.7822 77.8492 10.7496 77.9426 10.7496H78.5726C78.6752 10.7496 78.7546 10.7822 78.8106 10.8476C78.8759 10.9036 78.9086 10.9829 78.9086 11.0856V20.2136C78.9086 20.3069 78.8759 20.3862 78.8106 20.4516C78.7546 20.5169 78.6799 20.5496 78.5866 20.5496H77.9566C77.7979 20.5496 77.6859 20.4842 77.6206 20.3536L72.9306 13.1996V20.2276C72.9306 20.3209 72.8979 20.4002 72.8326 20.4656C72.7766 20.5216 72.7019 20.5496 72.6086 20.5496H71.9646ZM84.0656 20.6896C83.1136 20.6896 82.3529 20.3956 81.7836 19.8076C81.2143 19.2102 80.9016 18.3982 80.8456 17.3716L80.8316 16.8956L80.8456 16.4336C80.9016 15.4256 81.2143 14.6229 81.7836 14.0256C82.3529 13.4282 83.1136 13.1296 84.0656 13.1296C85.0923 13.1296 85.8856 13.4562 86.4456 14.1096C87.0149 14.7629 87.2996 15.6496 87.2996 16.7696V17.0216C87.2996 17.1149 87.2669 17.1942 87.2016 17.2596C87.1456 17.3156 87.0709 17.3436 86.9776 17.3436H82.1196V17.4696C82.1476 18.0762 82.3343 18.5942 82.6796 19.0236C83.0249 19.4529 83.4823 19.6676 84.0516 19.6676C84.4903 19.6676 84.8449 19.5836 85.1156 19.4156C85.3956 19.2382 85.6056 19.0562 85.7456 18.8696C85.8296 18.7576 85.8949 18.6922 85.9416 18.6736C85.9883 18.6456 86.0676 18.6316 86.1796 18.6316H86.7956C86.8796 18.6316 86.9496 18.6549 87.0056 18.7016C87.0709 18.7482 87.1036 18.8089 87.1036 18.8836C87.1036 19.0889 86.9776 19.3362 86.7256 19.6256C86.4736 19.9149 86.1143 20.1669 85.6476 20.3816C85.1903 20.5869 84.6629 20.6896 84.0656 20.6896ZM86.0256 16.3916V16.3496C86.0256 15.6962 85.8483 15.1642 85.4936 14.7536C85.1389 14.3429 84.6629 14.1376 84.0656 14.1376C83.4589 14.1376 82.9829 14.3429 82.6376 14.7536C82.2923 15.1642 82.1196 15.6962 82.1196 16.3496V16.3916H86.0256ZM90.7425 20.5496C90.6118 20.5496 90.5138 20.5216 90.4485 20.4656C90.3832 20.4096 90.3318 20.3209 90.2945 20.1996L88.3065 13.7036L88.2785 13.5636C88.2785 13.4796 88.3065 13.4096 88.3625 13.3536C88.4185 13.2976 88.4885 13.2696 88.5725 13.2696H89.1465C89.2398 13.2696 89.3145 13.2976 89.3705 13.3536C89.4358 13.4002 89.4732 13.4469 89.4825 13.4936L91.0645 18.8416L92.7445 13.5636C92.7632 13.4889 92.8052 13.4236 92.8705 13.3676C92.9358 13.3022 93.0245 13.2696 93.1365 13.2696H93.5845C93.6965 13.2696 93.7852 13.3022 93.8505 13.3676C93.9158 13.4236 93.9578 13.4889 93.9765 13.5636L95.6565 18.8416L97.2385 13.4936C97.2478 13.4469 97.2805 13.4002 97.3365 13.3536C97.4018 13.2976 97.4812 13.2696 97.5745 13.2696H98.1485C98.2325 13.2696 98.3025 13.2976 98.3585 13.3536C98.4145 13.4096 98.4425 13.4796 98.4425 13.5636L98.4145 13.7036L96.4265 20.1996C96.3892 20.3209 96.3378 20.4096 96.2725 20.4656C96.2072 20.5216 96.1092 20.5496 95.9785 20.5496H95.4745C95.2318 20.5496 95.0732 20.4329 94.9985 20.1996L93.3605 15.1316L91.7225 20.1996C91.6478 20.4329 91.4892 20.5496 91.2465 20.5496H90.7425ZM103.615 20.5496C103.522 20.5496 103.447 20.5216 103.391 20.4656C103.335 20.4002 103.307 20.3209 103.307 20.2276V11.0856C103.307 10.9829 103.335 10.9036 103.391 10.8476C103.447 10.7822 103.522 10.7496 103.615 10.7496H109.299C109.402 10.7496 109.481 10.7822 109.537 10.8476C109.602 10.9036 109.635 10.9829 109.635 11.0856V11.6036C109.635 11.6969 109.602 11.7762 109.537 11.8416C109.481 11.8976 109.402 11.9256 109.299 11.9256H104.609V15.2436H109.019C109.122 15.2436 109.201 15.2762 109.257 15.3416C109.322 15.3976 109.355 15.4722 109.355 15.5656V16.0976C109.355 16.1909 109.322 16.2702 109.257 16.3356C109.192 16.3916 109.112 16.4196 109.019 16.4196H104.609V20.2276C104.609 20.3209 104.576 20.4002 104.511 20.4656C104.446 20.5216 104.366 20.5496 104.273 20.5496H103.615ZM114.021 20.6896C113.069 20.6896 112.308 20.3956 111.739 19.8076C111.169 19.2102 110.857 18.3982 110.801 17.3716L110.787 16.8956L110.801 16.4336C110.857 15.4256 111.169 14.6229 111.739 14.0256C112.308 13.4282 113.069 13.1296 114.021 13.1296C115.047 13.1296 115.841 13.4562 116.401 14.1096C116.97 14.7629 117.255 15.6496 117.255 16.7696V17.0216C117.255 17.1149 117.222 17.1942 117.157 17.2596C117.101 17.3156 117.026 17.3436 116.933 17.3436H112.075V17.4696C112.103 18.0762 112.289 18.5942 112.635 19.0236C112.98 19.4529 113.437 19.6676 114.007 19.6676C114.445 19.6676 114.8 19.5836 115.071 19.4156C115.351 19.2382 115.561 19.0562 115.701 18.8696C115.785 18.7576 115.85 18.6922 115.897 18.6736C115.943 18.6456 116.023 18.6316 116.135 18.6316H116.751C116.835 18.6316 116.905 18.6549 116.961 18.7016C117.026 18.7482 117.059 18.8089 117.059 18.8836C117.059 19.0889 116.933 19.3362 116.681 19.6256C116.429 19.9149 116.069 20.1669 115.603 20.3816C115.145 20.5869 114.618 20.6896 114.021 20.6896ZM115.981 16.3916V16.3496C115.981 15.6962 115.803 15.1642 115.449 14.7536C115.094 14.3429 114.618 14.1376 114.021 14.1376C113.414 14.1376 112.938 14.3429 112.593 14.7536C112.247 15.1642 112.075 15.6962 112.075 16.3496V16.3916H115.981ZM120.973 20.6896C120.516 20.6896 120.091 20.5962 119.699 20.4096C119.316 20.2229 119.008 19.9709 118.775 19.6536C118.551 19.3269 118.439 18.9676 118.439 18.5756C118.439 17.9596 118.691 17.4556 119.195 17.0636C119.699 16.6716 120.385 16.4102 121.253 16.2796L123.353 15.9856V15.5796C123.353 14.6182 122.798 14.1376 121.687 14.1376C121.258 14.1376 120.912 14.2262 120.651 14.4036C120.39 14.5716 120.198 14.7722 120.077 15.0056C120.04 15.0989 119.998 15.1642 119.951 15.2016C119.914 15.2296 119.858 15.2436 119.783 15.2436H119.237C119.153 15.2436 119.078 15.2156 119.013 15.1596C118.957 15.0942 118.929 15.0196 118.929 14.9356C118.929 14.7209 119.027 14.4736 119.223 14.1936C119.428 13.9042 119.741 13.6569 120.161 13.4516C120.581 13.2369 121.094 13.1296 121.701 13.1296C122.746 13.1296 123.493 13.3722 123.941 13.8576C124.398 14.3429 124.627 14.9496 124.627 15.6776V20.2276C124.627 20.3209 124.594 20.4002 124.529 20.4656C124.473 20.5216 124.398 20.5496 124.305 20.5496H123.689C123.596 20.5496 123.521 20.5216 123.465 20.4656C123.409 20.4002 123.381 20.3209 123.381 20.2276V19.6116C123.176 19.9196 122.877 20.1762 122.485 20.3816C122.093 20.5869 121.589 20.6896 120.973 20.6896ZM121.253 19.6676C121.869 19.6676 122.373 19.4669 122.765 19.0656C123.157 18.6642 123.353 18.0809 123.353 17.3156V16.9236L121.715 17.1616C121.043 17.2549 120.534 17.4136 120.189 17.6376C119.844 17.8616 119.671 18.1416 119.671 18.4776C119.671 18.8602 119.825 19.1542 120.133 19.3596C120.45 19.5649 120.824 19.6676 121.253 19.6676ZM129.386 20.5496C127.939 20.5496 127.216 19.7329 127.216 18.0996V14.3476H126.11C126.017 14.3476 125.942 14.3196 125.886 14.2636C125.83 14.2076 125.802 14.1329 125.802 14.0396V13.5916C125.802 13.4982 125.83 13.4236 125.886 13.3676C125.942 13.3022 126.017 13.2696 126.11 13.2696H127.216V10.9316C127.216 10.8382 127.244 10.7636 127.3 10.7076C127.356 10.6422 127.431 10.6096 127.524 10.6096H128.14C128.233 10.6096 128.308 10.6422 128.364 10.7076C128.429 10.7636 128.462 10.8382 128.462 10.9316V13.2696H130.198C130.291 13.2696 130.366 13.3022 130.422 13.3676C130.487 13.4236 130.52 13.4982 130.52 13.5916V14.0396C130.52 14.1329 130.487 14.2076 130.422 14.2636C130.366 14.3196 130.291 14.3476 130.198 14.3476H128.462V18.0016C128.462 18.4776 128.537 18.8369 128.686 19.0796C128.845 19.3222 129.111 19.4436 129.484 19.4436H130.338C130.431 19.4436 130.506 19.4762 130.562 19.5416C130.618 19.5976 130.646 19.6722 130.646 19.7656V20.2276C130.646 20.3209 130.618 20.4002 130.562 20.4656C130.506 20.5216 130.431 20.5496 130.338 20.5496H129.386ZM134.73 20.6896C133.843 20.6896 133.157 20.4049 132.672 19.8356C132.186 19.2569 131.944 18.4916 131.944 17.5396V13.5916C131.944 13.4982 131.972 13.4236 132.028 13.3676C132.093 13.3022 132.172 13.2696 132.266 13.2696H132.91C133.003 13.2696 133.078 13.3022 133.134 13.3676C133.199 13.4236 133.232 13.4982 133.232 13.5916V17.4696C133.232 18.8882 133.848 19.5976 135.08 19.5976C135.677 19.5976 136.148 19.4109 136.494 19.0376C136.848 18.6549 137.026 18.1322 137.026 17.4696V13.5916C137.026 13.4982 137.054 13.4236 137.11 13.3676C137.175 13.3022 137.254 13.2696 137.348 13.2696H137.992C138.085 13.2696 138.16 13.3022 138.216 13.3676C138.281 13.4236 138.314 13.4982 138.314 13.5916V20.2276C138.314 20.3209 138.281 20.4002 138.216 20.4656C138.16 20.5216 138.085 20.5496 137.992 20.5496H137.39C137.296 20.5496 137.217 20.5216 137.152 20.4656C137.096 20.4002 137.068 20.3209 137.068 20.2276V19.5976C136.797 19.9616 136.48 20.2369 136.116 20.4236C135.752 20.6009 135.29 20.6896 134.73 20.6896ZM140.73 20.5496C140.637 20.5496 140.557 20.5216 140.492 20.4656C140.436 20.4002 140.408 20.3209 140.408 20.2276V13.6056C140.408 13.5122 140.436 13.4329 140.492 13.3676C140.557 13.3022 140.637 13.2696 140.73 13.2696H141.318C141.421 13.2696 141.5 13.3022 141.556 13.3676C141.621 13.4236 141.654 13.5029 141.654 13.6056V14.2216C142.037 13.5869 142.685 13.2696 143.6 13.2696H144.146C144.249 13.2696 144.328 13.2976 144.384 13.3536C144.44 13.4096 144.468 13.4889 144.468 13.5916V14.1096C144.468 14.2029 144.44 14.2822 144.384 14.3476C144.328 14.4036 144.249 14.4316 144.146 14.4316H143.348C142.835 14.4316 142.429 14.5809 142.13 14.8796C141.841 15.1782 141.696 15.5842 141.696 16.0976V20.2276C141.696 20.3209 141.663 20.4002 141.598 20.4656C141.533 20.5216 141.453 20.5496 141.36 20.5496H140.73ZM148.419 20.6896C147.467 20.6896 146.706 20.3956 146.137 19.8076C145.568 19.2102 145.255 18.3982 145.199 17.3716L145.185 16.8956L145.199 16.4336C145.255 15.4256 145.568 14.6229 146.137 14.0256C146.706 13.4282 147.467 13.1296 148.419 13.1296C149.446 13.1296 150.239 13.4562 150.799 14.1096C151.368 14.7629 151.653 15.6496 151.653 16.7696V17.0216C151.653 17.1149 151.62 17.1942 151.555 17.2596C151.499 17.3156 151.424 17.3436 151.331 17.3436H146.473V17.4696C146.501 18.0762 146.688 18.5942 147.033 19.0236C147.378 19.4529 147.836 19.6676 148.405 19.6676C148.844 19.6676 149.198 19.5836 149.469 19.4156C149.749 19.2382 149.959 19.0562 150.099 18.8696C150.183 18.7576 150.248 18.6922 150.295 18.6736C150.342 18.6456 150.421 18.6316 150.533 18.6316H151.149C151.233 18.6316 151.303 18.6549 151.359 18.7016C151.424 18.7482 151.457 18.8089 151.457 18.8836C151.457 19.0889 151.331 19.3362 151.079 19.6256C150.827 19.9149 150.468 20.1669 150.001 20.3816C149.544 20.5869 149.016 20.6896 148.419 20.6896ZM150.379 16.3916V16.3496C150.379 15.6962 150.202 15.1642 149.847 14.7536C149.492 14.3429 149.016 14.1376 148.419 14.1376C147.812 14.1376 147.336 14.3429 146.991 14.7536C146.646 15.1642 146.473 15.6962 146.473 16.3496V16.3916H150.379ZM155.847 20.6896C155.203 20.6896 154.657 20.5869 154.209 20.3816C153.771 20.1669 153.444 19.9242 153.229 19.6536C153.015 19.3829 152.907 19.1589 152.907 18.9816C152.907 18.8882 152.94 18.8182 153.005 18.7716C153.071 18.7156 153.141 18.6876 153.215 18.6876H153.803C153.859 18.6876 153.901 18.6969 153.929 18.7156C153.967 18.7342 154.013 18.7762 154.069 18.8416C154.284 19.1029 154.522 19.3082 154.783 19.4576C155.054 19.6069 155.413 19.6816 155.861 19.6816C156.365 19.6816 156.767 19.5882 157.065 19.4016C157.373 19.2149 157.527 18.9442 157.527 18.5896C157.527 18.3562 157.462 18.1696 157.331 18.0296C157.201 17.8896 156.981 17.7636 156.673 17.6516C156.375 17.5396 155.927 17.4182 155.329 17.2876C154.517 17.1102 153.943 16.8536 153.607 16.5176C153.271 16.1816 153.103 15.7476 153.103 15.2156C153.103 14.8702 153.206 14.5389 153.411 14.2216C153.617 13.8949 153.92 13.6336 154.321 13.4376C154.732 13.2322 155.217 13.1296 155.777 13.1296C156.365 13.1296 156.865 13.2276 157.275 13.4236C157.695 13.6196 158.008 13.8482 158.213 14.1096C158.428 14.3709 158.535 14.5902 158.535 14.7676C158.535 14.8516 158.503 14.9216 158.437 14.9776C158.381 15.0336 158.311 15.0616 158.227 15.0616H157.695C157.565 15.0616 157.471 15.0102 157.415 14.9076C157.257 14.7302 157.121 14.5949 157.009 14.5016C156.907 14.3989 156.753 14.3149 156.547 14.2496C156.342 14.1749 156.085 14.1376 155.777 14.1376C155.32 14.1376 154.97 14.2356 154.727 14.4316C154.485 14.6182 154.363 14.8702 154.363 15.1876C154.363 15.3836 154.415 15.5516 154.517 15.6916C154.62 15.8222 154.816 15.9482 155.105 16.0696C155.395 16.1816 155.824 16.2982 156.393 16.4196C157.28 16.6062 157.905 16.8722 158.269 17.2176C158.643 17.5629 158.829 18.0062 158.829 18.5476C158.829 18.9489 158.713 19.3129 158.479 19.6396C158.255 19.9662 157.915 20.2229 157.457 20.4096C157.009 20.5962 156.473 20.6896 155.847 20.6896Z" fill="#4F5665"/>
<path d="M10.7563 20.2796C10.625 20.2798 10.495 20.2542 10.3736 20.2041C10.2523 20.154 10.1421 20.0804 10.0493 19.9876L5.80727 15.7446C5.71169 15.6524 5.63544 15.5421 5.58294 15.4201C5.53045 15.2982 5.50277 15.167 5.50152 15.0342C5.50028 14.9014 5.52549 14.7697 5.57568 14.6468C5.62587 14.5238 5.70005 14.4121 5.79387 14.3182C5.8877 14.2242 5.9993 14.1499 6.12216 14.0995C6.24502 14.0492 6.37668 14.0238 6.50945 14.0248C6.64223 14.0259 6.77347 14.0534 6.89551 14.1057C7.01755 14.158 7.12795 14.2341 7.22027 14.3296L10.7553 17.8646L17.1203 11.5016C17.3078 11.3139 17.5621 11.2085 17.8274 11.2084C18.0927 11.2083 18.3471 11.3136 18.5348 11.5011C18.7224 11.6886 18.8279 11.9429 18.828 12.2082C18.8281 12.4735 18.7228 12.7279 18.5353 12.9156L11.4633 19.9876C11.3704 20.0804 11.2602 20.154 11.1389 20.2041C11.0176 20.2542 10.8875 20.2798 10.7563 20.2796Z" fill="#2FAB73"/>
</svg>
